light-display-wide vv(-11.1--59.5)-(109.3-100.0)-10.0-0.0-(0.0-0.0).ufo
<glyph name="be-cy.sc" format="1">
  <advance width="1401"/>
  <outline>
    <contour>
      <point x="767" y="-144" type="move" name="mark0"/>
    </contour>
    <contour>
      <point x="509" y="774" type="curve"/>
      <point x="509" y="1240" type="line"/>
      <point x="1067" y="1232" type="line"/>
      <point x="1132" y="1000" type="line"/>
      <point x="1247" y="1000" type="line"/>
      <point x="1225" y="1292" type="line"/>
      <point x="128" y="1292" type="line"/>
      <point x="128" y="1241" type="line"/>
      <point x="351" y="1227" type="line"/>
      <point x="351" y="67" type="line"/>
      <point x="126" y="53" type="line"/>
      <point x="126" y="0" type="line"/>
      <point x="436" y="0" type="line" smooth="yes"/>
      <point x="523" y="0"/>
      <point x="706" y="-14"/>
      <point x="757" y="-14" type="curve" smooth="yes"/>
      <point x="1085" y="-14"/>
      <point x="1315" y="128"/>
      <point x="1315" y="415" type="curve" smooth="yes"/>
      <point x="1315" y="646"/>
      <point x="1133" y="799"/>
      <point x="786" y="799" type="curve" smooth="yes"/>
      <point x="684" y="799"/>
      <point x="565" y="785"/>
    </contour>
    <contour>
      <point x="509" y="68" type="curve"/>
      <point x="509" y="703" type="line"/>
      <point x="554" y="712"/>
      <point x="652" y="716"/>
      <point x="744" y="716" type="curve" smooth="yes"/>
      <point x="991" y="716"/>
      <point x="1144" y="618"/>
      <point x="1144" y="406" type="curve" smooth="yes"/>
      <point x="1144" y="153"/>
      <point x="991" y="52"/>
      <point x="746" y="52" type="curve" smooth="yes"/>
      <point x="614" y="52"/>
      <point x="572" y="62"/>
    </contour>
  </outline>
</glyph>
<glyph name="che-cy.sc" format="1">
  <advance width="1422"/>
  <outline>
    <contour>
      <point x="652" y="1263" type="move" name="top"/>
    </contour>
    <contour>
      <point x="717" y="648" type="move" name="center"/>
    </contour>
    <contour>
      <point x="1377" y="0" type="move" name="bottomright"/>
    </contour>
    <contour>
      <point x="964" y="601" type="curve"/>
      <point x="964" y="69" type="line"/>
      <point x="746" y="53" type="line"/>
      <point x="746" y="0" type="line"/>
      <point x="1317" y="0" type="line"/>
      <point x="1317" y="54" type="line"/>
      <point x="1121" y="69" type="line"/>
      <point x="1121" y="1227" type="line"/>
      <point x="1315" y="1241" type="line"/>
      <point x="1315" y="1292" type="line"/>
      <point x="766" y="1292" type="line"/>
      <point x="766" y="1241" type="line"/>
      <point x="964" y="1226" type="line"/>
      <point x="964" y="657" type="line"/>
      <point x="901" y="630"/>
      <point x="738" y="601"/>
      <point x="625" y="601" type="curve" smooth="yes"/>
      <point x="340" y="601"/>
      <point x="309" y="656"/>
      <point x="309" y="969" type="curve" smooth="yes"/>
      <point x="309" y="1223" type="line"/>
      <point x="505" y="1241" type="line"/>
      <point x="505" y="1292" type="line"/>
      <point x="19" y="1292" type="line"/>
      <point x="19" y="1241" type="line"/>
      <point x="152" y="1224" type="line"/>
      <point x="152" y="927" type="line" smooth="yes"/>
      <point x="152" y="676"/>
      <point x="226" y="527"/>
      <point x="541" y="527" type="curve" smooth="yes"/>
      <point x="671" y="527"/>
      <point x="858" y="556"/>
    </contour>
  </outline>
</glyph>
<glyph name="chedescender-cy.sc" format="1">
  <advance width="1435"/>
  <outline>
    <contour>
      <point x="1370" y="69" type="curve"/>
      <point x="1124" y="69" type="line"/>
      <point x="1124" y="1227" type="line"/>
      <point x="1317" y="1241" type="line"/>
      <point x="1317" y="1292" type="line"/>
      <point x="768" y="1292" type="line"/>
      <point x="768" y="1241" type="line"/>
      <point x="966" y="1226" type="line"/>
      <point x="966" y="657" type="line"/>
      <point x="903" y="630"/>
      <point x="741" y="601"/>
      <point x="627" y="601" type="curve" smooth="yes"/>
      <point x="343" y="601"/>
      <point x="312" y="656"/>
      <point x="312" y="969" type="curve" smooth="yes"/>
      <point x="312" y="1223" type="line"/>
      <point x="508" y="1241" type="line"/>
      <point x="508" y="1292" type="line"/>
      <point x="22" y="1292" type="line"/>
      <point x="22" y="1241" type="line"/>
      <point x="154" y="1224" type="line"/>
      <point x="154" y="927" type="line" smooth="yes"/>
      <point x="154" y="676"/>
      <point x="229" y="527"/>
      <point x="543" y="527" type="curve" smooth="yes"/>
      <point x="673" y="527"/>
      <point x="860" y="556"/>
      <point x="966" y="601" type="curve"/>
      <point x="966" y="69" type="line"/>
      <point x="748" y="53" type="line"/>
      <point x="748" y="0" type="line"/>
      <point x="1191" y="0" type="line"/>
      <point x="1191" y="9"/>
      <point x="1203" y="-267"/>
      <point x="1203" y="-293" type="curve"/>
      <point x="1315" y="-293" type="line"/>
      <point x="1333" y="-117"/>
      <point x="1350" y="-68"/>
    </contour>
  </outline>
</glyph>
<glyph name="chedescenderabkhasian-cy.sc" format="1">
  <advance width="1642"/>
  <outline>
    <contour>
      <point x="1506" y="46" type="curve"/>
      <point x="1515" y="279" type="line"/>
      <point x="1409" y="275" type="line"/>
      <point x="1367" y="116" type="line"/>
      <point x="1306" y="84"/>
      <point x="1197" y="51"/>
      <point x="1004" y="51" type="curve" smooth="yes"/>
      <point x="686" y="51"/>
      <point x="514" y="348"/>
      <point x="516" y="655" type="curve"/>
      <point x="1534" y="653" type="line"/>
      <point x="1543" y="684"/>
      <point x="1544" y="711"/>
      <point x="1544" y="789" type="curve" smooth="yes"/>
      <point x="1545" y="1100"/>
      <point x="1336" y="1306"/>
      <point x="1021" y="1306" type="curve" smooth="yes"/>
      <point x="662" y="1306"/>
      <point x="389" y="1053"/>
      <point x="358" y="704" type="curve"/>
      <point x="205" y="706"/>
      <point x="153" y="763"/>
      <point x="153" y="816" type="curve" smooth="yes"/>
      <point x="153" y="852"/>
      <point x="181" y="909"/>
      <point x="196" y="924" type="curve"/>
      <point x="57" y="943" type="line"/>
      <point x="33" y="931"/>
      <point x="3" y="851"/>
      <point x="3" y="833" type="curve" smooth="yes"/>
      <point x="3" y="705"/>
      <point x="163" y="647"/>
      <point x="353" y="644" type="curve"/>
      <point x="354" y="265"/>
      <point x="589" y="-19"/>
      <point x="963" y="-20" type="curve"/>
      <point x="985" y="-53"/>
      <point x="1021" y="-120"/>
      <point x="1021" y="-185" type="curve" smooth="yes"/>
      <point x="1021" y="-290"/>
      <point x="963" y="-312"/>
      <point x="859" y="-312" type="curve" smooth="yes"/>
      <point x="840" y="-312"/>
      <point x="789" y="-305"/>
      <point x="762" y="-295" type="curve"/>
      <point x="760" y="-368" type="line"/>
      <point x="797" y="-379"/>
      <point x="862" y="-389"/>
      <point x="909" y="-389" type="curve" smooth="yes"/>
      <point x="1064" y="-389"/>
      <point x="1156" y="-349"/>
      <point x="1162" y="-242" type="curve" smooth="yes"/>
      <point x="1166" y="-156"/>
      <point x="1094" y="-54"/>
      <point x="1052" y="-19" type="curve"/>
      <point x="1286" y="-10"/>
      <point x="1400" y="44"/>
    </contour>
    <contour>
      <point x="1367" y="704" type="curve"/>
      <point x="514" y="704" type="line"/>
      <point x="528" y="1107"/>
      <point x="751" y="1246"/>
      <point x="978" y="1246" type="curve" smooth="yes"/>
      <point x="1252" y="1246"/>
      <point x="1377" y="1033"/>
      <point x="1376" y="818" type="curve" smooth="yes"/>
      <point x="1376" y="777"/>
      <point x="1374" y="741"/>
    </contour>
  </outline>
</glyph>
<glyph name="chekhakassian-cy.sc" format="1">
  <advance width="1436"/>
  <outline>
    <contour>
      <point x="697" y="-144" type="move" name="mark0"/>
    </contour>
    <contour>
      <point x="908" y="0" type="curve"/>
      <point x="1319" y="0" type="line"/>
      <point x="1319" y="54" type="line"/>
      <point x="1124" y="69" type="line"/>
      <point x="1124" y="1227" type="line"/>
      <point x="1317" y="1241" type="line"/>
      <point x="1317" y="1292" type="line"/>
      <point x="768" y="1292" type="line"/>
      <point x="768" y="1241" type="line"/>
      <point x="966" y="1226" type="line"/>
      <point x="966" y="657" type="line"/>
      <point x="903" y="630"/>
      <point x="741" y="601"/>
      <point x="627" y="601" type="curve" smooth="yes"/>
      <point x="343" y="601"/>
      <point x="312" y="656"/>
      <point x="312" y="969" type="curve" smooth="yes"/>
      <point x="312" y="1223" type="line"/>
      <point x="508" y="1241" type="line"/>
      <point x="508" y="1292" type="line"/>
      <point x="22" y="1292" type="line"/>
      <point x="22" y="1241" type="line"/>
      <point x="154" y="1224" type="line"/>
      <point x="154" y="927" type="line" smooth="yes"/>
      <point x="154" y="676"/>
      <point x="229" y="527"/>
      <point x="543" y="527" type="curve" smooth="yes"/>
      <point x="673" y="527"/>
      <point x="860" y="556"/>
      <point x="966" y="601" type="curve"/>
      <point x="966" y="67" type="line"/>
      <point x="744" y="67" type="line"/>
      <point x="746" y="112"/>
      <point x="721" y="-319"/>
      <point x="721" y="-293" type="curve"/>
      <point x="831" y="-293" type="line"/>
      <point x="842" y="-256"/>
      <point x="907" y="21"/>
    </contour>
  </outline>
</glyph>
<glyph name="cheverticalstroke-cy.sc" format="1">
  <advance width="1422"/>
  <outline>
    <contour>
      <point x="693" y="-144" type="move" name="mark0"/>
    </contour>
    <contour>
      <point x="964" y="594" type="curve"/>
      <point x="964" y="64" type="line"/>
      <point x="748" y="52" type="line"/>
      <point x="748" y="0" type="line"/>
      <point x="1317" y="0" type="line"/>
      <point x="1317" y="54" type="line"/>
      <point x="1124" y="69" type="line"/>
      <point x="1124" y="1227" type="line"/>
      <point x="1317" y="1241" type="line"/>
      <point x="1317" y="1292" type="line"/>
      <point x="770" y="1292" type="line"/>
      <point x="770" y="1240" type="line"/>
      <point x="964" y="1225" type="line"/>
      <point x="964" y="656" type="line"/>
      <point x="912" y="632"/>
      <point x="798" y="606"/>
      <point x="694" y="600" type="curve"/>
      <point x="694" y="870" type="line"/>
      <point x="597" y="870" type="line"/>
      <point x="597" y="601" type="line"/>
      <point x="359" y="604"/>
      <point x="314" y="659"/>
      <point x="314" y="969" type="curve" smooth="yes"/>
      <point x="314" y="1223" type="line"/>
      <point x="507" y="1241" type="line"/>
      <point x="507" y="1292" type="line"/>
      <point x="21" y="1292" type="line"/>
      <point x="21" y="1241" type="line"/>
      <point x="159" y="1221" type="line"/>
      <point x="159" y="927" type="line" smooth="yes"/>
      <point x="159" y="665"/>
      <point x="238" y="527"/>
      <point x="544" y="527" type="curve" smooth="yes"/>
      <point x="558" y="527"/>
      <point x="578" y="527"/>
      <point x="597" y="529" type="curve"/>
      <point x="597" y="321" type="line"/>
      <point x="694" y="321" type="line"/>
      <point x="694" y="526" type="line"/>
      <point x="793" y="538"/>
      <point x="887" y="556"/>
    </contour>
  </outline>
</glyph>
<glyph name="de-cy.sc" format="1">
  <advance width="1528"/>
  <outline>
    <contour>
      <point x="1408" y="69" type="curve"/>
      <point x="1224" y="69" type="line"/>
      <point x="1224" y="1227" type="line"/>
      <point x="1423" y="1241" type="line"/>
      <point x="1423" y="1292" type="line"/>
      <point x="295" y="1292" type="line"/>
      <point x="295" y="1241" type="line"/>
      <point x="509" y="1227" type="line"/>
      <point x="509" y="1078" type="line" smooth="yes"/>
      <point x="509" y="424"/>
      <point x="296" y="117"/>
      <point x="232" y="69" type="curve"/>
      <point x="77" y="69" type="line"/>
      <point x="78" y="122"/>
      <point x="52" y="-315"/>
      <point x="52" y="-290" type="curve"/>
      <point x="160" y="-290" type="line"/>
      <point x="171" y="-272"/>
      <point x="239" y="12"/>
      <point x="240" y="0" type="curve"/>
      <point x="1229" y="0" type="line"/>
      <point x="1231" y="-2"/>
      <point x="1245" y="-279"/>
      <point x="1247" y="-293" type="curve"/>
      <point x="1356" y="-293" type="line"/>
      <point x="1358" y="-299"/>
      <point x="1408" y="131"/>
    </contour>
    <contour>
      <point x="620" y="1068" type="curve"/>
      <point x="620" y="1222" type="line"/>
      <point x="1069" y="1222" type="line"/>
      <point x="1066" y="69" type="line"/>
      <point x="388" y="69" type="line"/>
      <point x="451" y="127"/>
      <point x="623" y="496"/>
    </contour>
  </outline>
</glyph>
<glyph name="dje-cy.sc" format="1">
  <advance width="1722"/>
  <outline>
    <contour>
      <point x="704" y="-144" type="move" name="mark0"/>
    </contour>
    <contour>
      <point x="828" y="667" type="curve"/>
      <point x="828" y="1239" type="line"/>
      <point x="1280" y="1226" type="line"/>
      <point x="1316" y="892" type="line"/>
      <point x="1425" y="892" type="line"/>
      <point x="1433" y="1292" type="line"/>
      <point x="115" y="1292" type="line"/>
      <point x="87" y="892" type="line"/>
      <point x="201" y="892" type="line"/>
      <point x="257" y="1226" type="line"/>
      <point x="661" y="1239" type="line"/>
      <point x="661" y="67" type="line"/>
      <point x="386" y="52" type="line"/>
      <point x="386" y="0" type="line"/>
      <point x="1046" y="0" type="line"/>
      <point x="1046" y="52" type="line"/>
      <point x="828" y="64" type="line"/>
      <point x="828" y="619" type="line"/>
      <point x="941" y="660"/>
      <point x="1034" y="669"/>
      <point x="1145" y="669" type="curve" smooth="yes"/>
      <point x="1395" y="669"/>
      <point x="1473" y="539"/>
      <point x="1473" y="310" type="curve" smooth="yes"/>
      <point x="1473" y="-62"/>
      <point x="1383" y="-269"/>
      <point x="1147" y="-269" type="curve" smooth="yes"/>
      <point x="1115" y="-269"/>
      <point x="1077" y="-270"/>
      <point x="1062" y="-271" type="curve"/>
      <point x="1063" y="-331" type="line"/>
      <point x="1084" y="-340"/>
      <point x="1149" y="-337"/>
      <point x="1172" y="-337" type="curve" smooth="yes"/>
      <point x="1481" y="-337"/>
      <point x="1634" y="-36"/>
      <point x="1634" y="310" type="curve" smooth="yes"/>
      <point x="1634" y="510"/>
      <point x="1574" y="737"/>
      <point x="1184" y="737" type="curve" smooth="yes"/>
      <point x="1104" y="737"/>
      <point x="917" y="721"/>
    </contour>
  </outline>
</glyph>
<glyph name="dzeabkhasian-cy.sc" format="1">
  <advance width="1353"/>
  <outline>
    <contour>
      <point x="646" y="720" type="curve"/>
      <point x="1167" y="1248" type="line"/>
      <point x="1167" y="1292" type="line"/>
      <point x="219" y="1292" type="line"/>
      <point x="241" y="1037" type="line"/>
      <point x="343" y="1037" type="line"/>
      <point x="374" y="1206" type="line"/>
      <point x="972" y="1211" type="line"/>
      <point x="977" y="1263"/>
      <point x="498" y="701"/>
      <point x="489" y="735" type="curve"/>
      <point x="513" y="687" type="line"/>
      <point x="541" y="684"/>
      <point x="571" y="684"/>
      <point x="600" y="684" type="curve"/>
      <point x="933" y="670"/>
      <point x="1043" y="584"/>
      <point x="1043" y="384" type="curve" smooth="yes"/>
      <point x="1043" y="234"/>
      <point x="904" y="74"/>
      <point x="606" y="74" type="curve" smooth="yes"/>
      <point x="431" y="74"/>
      <point x="374" y="105"/>
      <point x="353" y="109" type="curve"/>
      <point x="310" y="297" type="line"/>
      <point x="216" y="297" type="line"/>
      <point x="178" y="42" type="line"/>
      <point x="231" y="38"/>
      <point x="352" y="-8"/>
      <point x="580" y="-8" type="curve" smooth="yes"/>
      <point x="948" y="-8"/>
      <point x="1214" y="132"/>
      <point x="1214" y="392" type="curve" smooth="yes"/>
      <point x="1214" y="633"/>
      <point x="1063" y="728"/>
      <point x="778" y="728" type="curve" smooth="yes"/>
      <point x="730" y="728"/>
      <point x="689" y="726"/>
    </contour>
  </outline>
</glyph>
<glyph name="dzhe-cy.sc" format="1">
  <advance width="1685"/>
  <outline>
    <contour>
      <point x="949" y="0" type="curve"/>
      <point x="1563" y="0" type="line"/>
      <point x="1563" y="53" type="line"/>
      <point x="1373" y="67" type="line"/>
      <point x="1373" y="1227" type="line"/>
      <point x="1540" y="1241" type="line"/>
      <point x="1540" y="1292" type="line"/>
      <point x="1038" y="1292" type="line"/>
      <point x="1038" y="1241" type="line"/>
      <point x="1215" y="1227" type="line"/>
      <point x="1215" y="71" type="line"/>
      <point x="467" y="71" type="line"/>
      <point x="467" y="1227" type="line"/>
      <point x="671" y="1241" type="line"/>
      <point x="671" y="1292" type="line"/>
      <point x="133" y="1292" type="line"/>
      <point x="133" y="1241" type="line"/>
      <point x="312" y="1227" type="line"/>
      <point x="312" y="69" type="line"/>
      <point x="123" y="53" type="line"/>
      <point x="123" y="0" type="line"/>
      <point x="765" y="0" type="line"/>
      <point x="766" y="7"/>
      <point x="799" y="-331"/>
      <point x="799" y="-290" type="curve"/>
      <point x="916" y="-290" type="line"/>
      <point x="928" y="-184"/>
      <point x="939" y="-131"/>
    </contour>
  </outline>
</glyph>
<glyph name="e-cy.sc" format="1">
  <advance width="1386"/>
  <outline>
    <contour>
      <point x="830" y="0" type="move" name="mark0"/>
    </contour>
    <contour>
      <point x="1229" y="46" type="curve"/>
      <point x="1286" y="262" type="line"/>
      <point x="1188" y="274" type="line"/>
      <point x="1101" y="114" type="line"/>
      <point x="1041" y="72"/>
      <point x="976" y="49"/>
      <point x="806" y="49" type="curve" smooth="yes"/>
      <point x="471" y="49"/>
      <point x="304" y="335"/>
      <point x="287" y="632" type="curve"/>
      <point x="1020" y="614" type="line"/>
      <point x="1020" y="717" type="line"/>
      <point x="288" y="700" type="line"/>
      <point x="305" y="1024"/>
      <point x="516" y="1237"/>
      <point x="794" y="1237" type="curve" smooth="yes"/>
      <point x="974" y="1237"/>
      <point x="1054" y="1210"/>
      <point x="1104" y="1184" type="curve"/>
      <point x="1154" y="998" type="line"/>
      <point x="1255" y="998" type="line"/>
      <point x="1267" y="1248" type="line"/>
      <point x="1186" y="1262"/>
      <point x="1011" y="1306"/>
      <point x="820" y="1306" type="curve" smooth="yes"/>
      <point x="412" y="1306"/>
      <point x="94" y="1019"/>
      <point x="94" y="656" type="curve" smooth="yes"/>
      <point x="94" y="250"/>
      <point x="364" y="-20"/>
      <point x="802" y="-20" type="curve" smooth="yes"/>
      <point x="1045" y="-20"/>
      <point x="1121" y="43"/>
    </contour>
  </outline>
</glyph>
<glyph name="ef-cy.sc" format="1">
  <advance width="1540"/>
  <outline>
    <contour>
      <point x="768" y="-144" type="move" name="mark0"/>
    </contour>
    <contour>
      <point x="844" y="1118" type="curve"/>
      <point x="844" y="1256" type="line"/>
      <point x="1055" y="1272" type="line"/>
      <point x="1055" y="1326" type="line"/>
      <point x="486" y="1326" type="line"/>
      <point x="486" y="1272" type="line"/>
      <point x="697" y="1256" type="line"/>
      <point x="697" y="1119" type="line"/>
      <point x="301" y="1091"/>
      <point x="54" y="901"/>
      <point x="54" y="666" type="curve" smooth="yes"/>
      <point x="54" y="455"/>
      <point x="166" y="212"/>
      <point x="697" y="186" type="curve"/>
      <point x="697" y="41" type="line"/>
      <point x="485" y="17" type="line"/>
      <point x="485" y="-36" type="line"/>
      <point x="1057" y="-36" type="line"/>
      <point x="1057" y="13" type="line"/>
      <point x="844" y="40" type="line"/>
      <point x="844" y="190" type="line"/>
      <point x="1240" y="224"/>
      <point x="1486" y="432"/>
      <point x="1486" y="665" type="curve" smooth="yes"/>
      <point x="1486" y="884"/>
      <point x="1369" y="1097"/>
    </contour>
    <contour>
      <point x="697" y="1072" type="curve"/>
      <point x="697" y="242" type="line"/>
      <point x="311" y="260"/>
      <point x="237" y="484"/>
      <point x="237" y="677" type="curve" smooth="yes"/>
      <point x="237" y="856"/>
      <point x="324" y="1051"/>
    </contour>
    <contour>
      <point x="844" y="245" type="curve"/>
      <point x="844" y="1071" type="line"/>
      <point x="1238" y="1054"/>
      <point x="1301" y="846"/>
      <point x="1301" y="663" type="curve" smooth="yes"/>
      <point x="1301" y="458"/>
      <point x="1204" y="268"/>
    </contour>
  </outline>
</glyph>
<glyph name="elhook-cy.sc" format="1">
  <advance width="1538"/>
  <outline>
    <contour>
      <point x="1230" y="478" type="curve" smooth="yes"/>
      <point x="1230" y="1227" type="line"/>
      <point x="1428" y="1241" type="line"/>
      <point x="1428" y="1292" type="line"/>
      <point x="283" y="1292" type="line"/>
      <point x="283" y="1241" type="line"/>
      <point x="514" y="1227" type="line"/>
      <point x="514" y="1027" type="line" smooth="yes"/>
      <point x="514" y="584"/>
      <point x="451" y="298"/>
      <point x="340" y="166" type="curve"/>
      <point x="308" y="130"/>
      <point x="271" y="106"/>
      <point x="219" y="106" type="curve" smooth="yes"/>
      <point x="135" y="106"/>
      <point x="86" y="111"/>
      <point x="65" y="115" type="curve"/>
      <point x="74" y="0" type="line"/>
      <point x="98" y="-2"/>
      <point x="150" y="-8"/>
      <point x="215" y="-8" type="curve" smooth="yes"/>
      <point x="312" y="-8"/>
      <point x="383" y="24"/>
      <point x="445" y="106" type="curve" smooth="yes"/>
      <point x="560" y="260"/>
      <point x="626" y="565"/>
      <point x="626" y="1033" type="curve" smooth="yes"/>
      <point x="626" y="1228" type="line"/>
      <point x="1075" y="1228" type="line"/>
      <point x="1070" y="498" type="line" smooth="yes"/>
      <point x="1068" y="200"/>
      <point x="1067" y="103"/>
      <point x="1026" y="-16" type="curve" smooth="yes"/>
      <point x="982" y="-130"/>
      <point x="872" y="-212"/>
      <point x="746" y="-240" type="curve"/>
      <point x="790" y="-282" type="line"/>
      <point x="953" y="-262"/>
      <point x="1158" y="-176"/>
      <point x="1209" y="41" type="curve"/>
      <point x="1226" y="140"/>
      <point x="1230" y="286"/>
    </contour>
  </outline>
</glyph>
<glyph name="eltail-cy.sc" format="1">
  <advance width="1554"/>
  <outline>
    <contour>
      <point x="617" y="-144" type="move" name="mark0"/>
    </contour>
    <contour>
      <point x="1478" y="0" type="curve"/>
      <point x="1478" y="68" type="line"/>
      <point x="1230" y="68" type="line"/>
      <point x="1230" y="1227" type="line"/>
      <point x="1428" y="1241" type="line"/>
      <point x="1428" y="1292" type="line"/>
      <point x="283" y="1292" type="line"/>
      <point x="283" y="1241" type="line"/>
      <point x="514" y="1227" type="line"/>
      <point x="514" y="1027" type="line" smooth="yes"/>
      <point x="514" y="587"/>
      <point x="451" y="297"/>
      <point x="340" y="167" type="curve"/>
      <point x="308" y="126"/>
      <point x="265" y="108"/>
      <point x="219" y="108" type="curve" smooth="yes"/>
      <point x="130" y="108"/>
      <point x="86" y="112"/>
      <point x="65" y="117" type="curve"/>
      <point x="74" y="0" type="line"/>
      <point x="98" y="-2"/>
      <point x="150" y="-8"/>
      <point x="215" y="-8" type="curve" smooth="yes"/>
      <point x="313" y="-8"/>
      <point x="384" y="24"/>
      <point x="443" y="103" type="curve" smooth="yes"/>
      <point x="565" y="269"/>
      <point x="626" y="573"/>
      <point x="626" y="1033" type="curve" smooth="yes"/>
      <point x="626" y="1228" type="line"/>
      <point x="1075" y="1228" type="line"/>
      <point x="1075" y="69" type="line"/>
      <point x="859" y="53" type="line"/>
      <point x="859" y="0" type="line"/>
      <point x="1330" y="0" type="line"/>
      <point x="1327" y="4"/>
      <point x="1245" y="-330"/>
      <point x="1245" y="-290" type="curve"/>
      <point x="1362" y="-290" type="line"/>
      <point x="1363" y="-304"/>
      <point x="1480" y="42"/>
    </contour>
  </outline>
</glyph>
<glyph name="emtail-cy.sc" format="1">
  <advance width="2106"/>
  <outline>
    <contour>
      <point x="1020" y="-144" type="move" name="mark0"/>
    </contour>
    <contour>
      <point x="2120" y="0" type="curve"/>
      <point x="2120" y="72" type="line"/>
      <point x="1895" y="72" type="line"/>
      <point x="1704" y="1227" type="line"/>
      <point x="1915" y="1241" type="line"/>
      <point x="1915" y="1292" type="line"/>
      <point x="1473" y="1292" type="line"/>
      <point x="1124" y="367" type="line"/>
      <point x="1058" y="117" type="line"/>
      <point x="987" y="367" type="line"/>
      <point x="617" y="1292" type="line"/>
      <point x="146" y="1292" type="line"/>
      <point x="146" y="1241" type="line"/>
      <point x="377" y="1227" type="line"/>
      <point x="205" y="69" type="line"/>
      <point x="23" y="53" type="line"/>
      <point x="23" y="0" type="line"/>
      <point x="548" y="0" type="line"/>
      <point x="548" y="53" type="line"/>
      <point x="348" y="69" type="line"/>
      <point x="443" y="884" type="line"/>
      <point x="484" y="1253" type="line"/>
      <point x="618" y="898" type="line"/>
      <point x="1009" y="-14" type="line"/>
      <point x="1079" y="-14" type="line"/>
      <point x="1482" y="1038" type="line"/>
      <point x="1558" y="1257" type="line"/>
      <point x="1614" y="884" type="line"/>
      <point x="1727" y="69" type="line"/>
      <point x="1538" y="53" type="line"/>
      <point x="1538" y="0" type="line"/>
      <point x="1977" y="0" type="line"/>
      <point x="1972" y="18"/>
      <point x="1890" y="-320"/>
      <point x="1888" y="-290" type="curve"/>
      <point x="2002" y="-290" type="line"/>
      <point x="2011" y="-297"/>
      <point x="2118" y="46"/>
    </contour>
  </outline>
</glyph>
<glyph name="endescender-cy.sc" format="1">
  <advance width="1756"/>
  <outline>
    <contour>
      <point x="879" y="-144" type="move" name="mark0"/>
    </contour>
    <contour>
      <point x="1661" y="69" type="curve"/>
      <point x="1447" y="69" type="line"/>
      <point x="1447" y="1226" type="line"/>
      <point x="1622" y="1241" type="line"/>
      <point x="1622" y="1292" type="line"/>
      <point x="1110" y="1292" type="line"/>
      <point x="1110" y="1241" type="line"/>
      <point x="1287" y="1227" type="line"/>
      <point x="1287" y="699" type="line"/>
      <point x="469" y="699" type="line"/>
      <point x="469" y="1226" type="line"/>
      <point x="652" y="1241" type="line"/>
      <point x="652" y="1292" type="line"/>
      <point x="137" y="1292" type="line"/>
      <point x="137" y="1241" type="line"/>
      <point x="310" y="1226" type="line"/>
      <point x="310" y="67" type="line"/>
      <point x="130" y="53" type="line"/>
      <point x="130" y="0" type="line"/>
      <point x="655" y="0" type="line"/>
      <point x="655" y="53" type="line"/>
      <point x="469" y="67" type="line"/>
      <point x="469" y="635" type="line"/>
      <point x="1287" y="635" type="line"/>
      <point x="1287" y="69" type="line"/>
      <point x="1108" y="53" type="line"/>
      <point x="1108" y="0" type="line"/>
      <point x="1480" y="0" type="line"/>
      <point x="1482" y="0"/>
      <point x="1495" y="-273"/>
      <point x="1497" y="-293" type="curve"/>
      <point x="1606" y="-293" type="line"/>
      <point x="1608" y="-296"/>
      <point x="1661" y="126"/>
    </contour>
  </outline>
</glyph>
<glyph name="enghe-cy.sc" format="1">
  <advance width="2121"/>
  <outline>
    <contour>
      <point x="135" y="1292" type="line"/>
      <point x="135" y="1241" type="line"/>
      <point x="315" y="1226" type="line"/>
      <point x="315" y="67" type="line"/>
      <point x="126" y="53" type="line"/>
      <point x="126" y="0" type="line"/>
      <point x="671" y="0" type="line"/>
      <point x="671" y="53" type="line"/>
      <point x="472" y="69" type="line"/>
      <point x="472" y="635" type="line"/>
      <point x="1292" y="635" type="line"/>
      <point x="1292" y="69" type="line"/>
      <point x="1103" y="53" type="line"/>
      <point x="1103" y="0" type="line"/>
      <point x="1629" y="0" type="line"/>
      <point x="1629" y="53" type="line"/>
      <point x="1452" y="69" type="line"/>
      <point x="1452" y="1241" type="line"/>
      <point x="1848" y="1221" type="line"/>
      <point x="1899" y="927" type="line"/>
      <point x="2021" y="927" type="line"/>
      <point x="1999" y="1292" type="line"/>
      <point x="1101" y="1292" type="line"/>
      <point x="1101" y="1241" type="line"/>
      <point x="1292" y="1227" type="line"/>
      <point x="1292" y="699" type="line"/>
      <point x="472" y="699" type="line"/>
      <point x="472" y="1227" type="line"/>
      <point x="671" y="1241" type="line"/>
      <point x="671" y="1292" type="line"/>
    </contour>
  </outline>
</glyph>
<glyph name="enhook-cy.sc" format="1">
  <advance width="1753"/>
  <outline>
    <contour>
      <point x="880" y="-144" type="move" name="mark0"/>
    </contour>
    <contour>
      <point x="1447" y="432" type="curve" smooth="yes"/>
      <point x="1447" y="1227" type="line"/>
      <point x="1632" y="1241" type="line"/>
      <point x="1632" y="1292" type="line"/>
      <point x="1110" y="1292" type="line"/>
      <point x="1110" y="1241" type="line"/>
      <point x="1287" y="1227" type="line"/>
      <point x="1287" y="699" type="line"/>
      <point x="469" y="699" type="line"/>
      <point x="469" y="1226" type="line"/>
      <point x="652" y="1241" type="line"/>
      <point x="652" y="1292" type="line"/>
      <point x="137" y="1292" type="line"/>
      <point x="137" y="1241" type="line"/>
      <point x="310" y="1226" type="line"/>
      <point x="310" y="67" type="line"/>
      <point x="130" y="53" type="line"/>
      <point x="130" y="0" type="line"/>
      <point x="655" y="0" type="line"/>
      <point x="655" y="53" type="line"/>
      <point x="469" y="67" type="line"/>
      <point x="469" y="635" type="line"/>
      <point x="1285" y="635" type="line"/>
      <point x="1285" y="451" type="line" smooth="yes"/>
      <point x="1285" y="122"/>
      <point x="1286" y="15"/>
      <point x="1240" y="-82" type="curve"/>
      <point x="1193" y="-149"/>
      <point x="1088" y="-208"/>
      <point x="964" y="-226" type="curve"/>
      <point x="1004" y="-274" type="line"/>
      <point x="1159" y="-267"/>
      <point x="1375" y="-204"/>
      <point x="1427" y="-36" type="curve"/>
      <point x="1450" y="99"/>
      <point x="1447" y="225"/>
    </contour>
  </outline>
</glyph>
<glyph name="enlefthook-cy.sc" format="1">
  <advance width="1731"/>
  <outline>
    <contour>
      <point x="496" y="478" type="curve" smooth="yes"/>
      <point x="496" y="635" type="line"/>
      <point x="1291" y="635" type="line"/>
      <point x="1291" y="69" type="line"/>
      <point x="1110" y="53" type="line"/>
      <point x="1110" y="0" type="line"/>
      <point x="1627" y="0" type="line"/>
      <point x="1627" y="53" type="line"/>
      <point x="1451" y="67" type="line"/>
      <point x="1451" y="1226" type="line"/>
      <point x="1617" y="1241" type="line"/>
      <point x="1617" y="1292" type="line"/>
      <point x="1112" y="1292" type="line"/>
      <point x="1112" y="1241" type="line"/>
      <point x="1291" y="1228" type="line"/>
      <point x="1291" y="699" type="line"/>
      <point x="496" y="699" type="line"/>
      <point x="496" y="1226" type="line"/>
      <point x="678" y="1241" type="line"/>
      <point x="678" y="1292" type="line"/>
      <point x="163" y="1292" type="line"/>
      <point x="163" y="1241" type="line"/>
      <point x="336" y="1226" type="line"/>
      <point x="336" y="498" type="line" smooth="yes"/>
      <point x="336" y="232"/>
      <point x="337" y="114"/>
      <point x="294" y="-20" type="curve" smooth="yes"/>
      <point x="252" y="-128"/>
      <point x="140" y="-212"/>
      <point x="14" y="-240" type="curve"/>
      <point x="58" y="-282" type="line"/>
      <point x="231" y="-259"/>
      <point x="424" y="-166"/>
      <point x="477" y="42" type="curve"/>
      <point x="496" y="159"/>
      <point x="496" y="280"/>
    </contour>
  </outline>
</glyph>
<glyph name="entail-cy.sc" format="1">
  <advance width="1755"/>
  <outline>
    <contour>
      <point x="1656" y="0" type="curve"/>
      <point x="1656" y="65" type="line"/>
      <point x="1450" y="65" type="line"/>
      <point x="1450" y="1226" type="line"/>
      <point x="1622" y="1241" type="line"/>
      <point x="1622" y="1292" type="line"/>
      <point x="1111" y="1292" type="line"/>
      <point x="1111" y="1241" type="line"/>
      <point x="1287" y="1227" type="line"/>
      <point x="1287" y="699" type="line"/>
      <point x="469" y="699" type="line"/>
      <point x="469" y="1227" type="line"/>
      <point x="652" y="1241" type="line"/>
      <point x="652" y="1292" type="line"/>
      <point x="137" y="1292" type="line"/>
      <point x="137" y="1241" type="line"/>
      <point x="310" y="1227" type="line"/>
      <point x="310" y="67" type="line"/>
      <point x="130" y="52" type="line"/>
      <point x="130" y="0" type="line"/>
      <point x="654" y="0" type="line"/>
      <point x="654" y="52" type="line"/>
      <point x="469" y="69" type="line"/>
      <point x="469" y="635" type="line"/>
      <point x="1287" y="635" type="line"/>
      <point x="1287" y="69" type="line"/>
      <point x="1108" y="52" type="line"/>
      <point x="1108" y="0" type="line"/>
      <point x="1507" y="0" type="line"/>
      <point x="1475" y="-117"/>
      <point x="1448" y="-194"/>
      <point x="1417" y="-294" type="curve"/>
      <point x="1533" y="-294" type="line"/>
      <point x="1537" y="-309"/>
      <point x="1654" y="28"/>
    </contour>
  </outline>
</glyph>
<glyph name="ereversed-cy.sc" format="1">
  <advance width="1469"/>
  <outline>
    <contour>
      <point x="778" y="1264" type="move" name="top"/>
    </contour>
    <contour>
      <point x="217" y="1240" type="curve"/>
      <point x="208" y="1002" type="line"/>
      <point x="327" y="1000" type="line"/>
      <point x="378" y="1140" type="line"/>
      <point x="433" y="1183"/>
      <point x="501" y="1241"/>
      <point x="679" y="1241" type="curve" smooth="yes"/>
      <point x="1008" y="1241"/>
      <point x="1158" y="973"/>
      <point x="1184" y="696" type="curve"/>
      <point x="460" y="715" type="line"/>
      <point x="460" y="611" type="line"/>
      <point x="1188" y="628" type="line"/>
      <point x="1184" y="278"/>
      <point x="976" y="54"/>
      <point x="697" y="54" type="curve" smooth="yes"/>
      <point x="513" y="54"/>
      <point x="421" y="106"/>
      <point x="368" y="138" type="curve"/>
      <point x="279" y="263" type="line"/>
      <point x="177" y="236" type="line"/>
      <point x="230" y="51" type="line"/>
      <point x="339" y="52"/>
      <point x="439" y="-20"/>
      <point x="664" y="-20" type="curve" smooth="yes"/>
      <point x="1084" y="-20"/>
      <point x="1378" y="258"/>
      <point x="1378" y="626" type="curve" smooth="yes"/>
      <point x="1378" y="1028"/>
      <point x="1124" y="1306"/>
      <point x="685" y="1306" type="curve" smooth="yes"/>
      <point x="422" y="1306"/>
      <point x="330" y="1243"/>
    </contour>
  </outline>
</glyph>
<glyph name="ertick-cy.sc" format="1">
  <advance width="1371"/>
  <outline>
    <contour>
      <point x="709" y="-144" type="move" name="mark0"/>
    </contour>
    <contour>
      <point x="390" y="1292" type="curve" smooth="yes"/>
      <point x="142" y="1292" type="line"/>
      <point x="142" y="1241" type="line"/>
      <point x="310" y="1227" type="line"/>
      <point x="310" y="67" type="line"/>
      <point x="128" y="53" type="line"/>
      <point x="128" y="0" type="line"/>
      <point x="762" y="0" type="line"/>
      <point x="762" y="53" type="line"/>
      <point x="469" y="70" type="line"/>
      <point x="469" y="528" type="line"/>
      <point x="489" y="523"/>
      <point x="620" y="519"/>
      <point x="697" y="519" type="curve" smooth="yes"/>
      <point x="777" y="519"/>
      <point x="849" y="528"/>
      <point x="921" y="542" type="curve"/>
      <point x="1122" y="317" type="line"/>
      <point x="1203" y="354" type="line"/>
      <point x="1017" y="570" type="line"/>
      <point x="1178" y="635"/>
      <point x="1295" y="765"/>
      <point x="1295" y="953" type="curve" smooth="yes"/>
      <point x="1295" y="1170"/>
      <point x="1165" y="1306"/>
      <point x="757" y="1306" type="curve" smooth="yes"/>
      <point x="573" y="1305"/>
      <point x="530" y="1292"/>
    </contour>
    <contour>
      <point x="949" y="601" type="curve"/>
      <point x="791" y="781" type="line"/>
      <point x="707" y="744" type="line"/>
      <point x="852" y="590" type="line"/>
      <point x="798" y="588"/>
      <point x="748" y="587"/>
      <point x="703" y="587" type="curve" smooth="yes"/>
      <point x="608" y="587"/>
      <point x="516" y="588"/>
      <point x="469" y="595" type="curve"/>
      <point x="469" y="1230" type="line"/>
      <point x="529" y="1227"/>
      <point x="602" y="1240"/>
      <point x="705" y="1240" type="curve" smooth="yes"/>
      <point x="988" y="1240"/>
      <point x="1123" y="1169"/>
      <point x="1123" y="954" type="curve" smooth="yes"/>
      <point x="1123" y="762"/>
      <point x="1053" y="653"/>
    </contour>
  </outline>
</glyph>
<glyph name="fita-cy.sc" format="1">
  <advance width="1537"/>
  <outline>
    <contour>
      <point x="754" y="-20" type="curve" smooth="yes"/>
      <point x="1137" y="-12"/>
      <point x="1446" y="243"/>
      <point x="1446" y="653" type="curve" smooth="yes"/>
      <point x="1446" y="1046"/>
      <point x="1210" y="1307"/>
      <point x="790" y="1306" type="curve" smooth="yes"/>
      <point x="404" y="1306"/>
      <point x="93" y="1046"/>
      <point x="93" y="633" type="curve" smooth="yes"/>
      <point x="93" y="247"/>
      <point x="333" y="-28"/>
    </contour>
    <contour>
      <point x="765" y="44" type="curve" smooth="yes"/>
      <point x="481" y="44"/>
      <point x="301" y="271"/>
      <point x="273" y="544" type="curve"/>
      <point x="326" y="586"/>
      <point x="414" y="678"/>
      <point x="528" y="678" type="curve" smooth="yes"/>
      <point x="642" y="678"/>
      <point x="798" y="550"/>
      <point x="967" y="550" type="curve" smooth="yes"/>
      <point x="1101" y="550"/>
      <point x="1200" y="630"/>
      <point x="1264" y="707" type="curve"/>
      <point x="1263" y="290"/>
      <point x="1082" y="44"/>
    </contour>
    <contour>
      <point x="270" y="609" type="curve"/>
      <point x="274" y="1033"/>
      <point x="480" y="1241"/>
      <point x="772" y="1241" type="curve" smooth="yes"/>
      <point x="1049" y="1241"/>
      <point x="1224" y="1023"/>
      <point x="1256" y="773" type="curve"/>
      <point x="1206" y="730"/>
      <point x="1114" y="636"/>
      <point x="1001" y="636" type="curve" smooth="yes"/>
      <point x="875" y="636"/>
      <point x="725" y="763"/>
      <point x="559" y="763" type="curve" smooth="yes"/>
      <point x="432" y="763"/>
      <point x="339" y="691"/>
    </contour>
  </outline>
</glyph>
<glyph name="ge-cy.sc" format="1">
  <advance width="1208"/>
  <outline>
    <contour>
      <point x="758" y="1263" type="move" name="top"/>
    </contour>
    <contour>
      <point x="606" y="648" type="move" name="center"/>
    </contour>
    <contour>
      <point x="355" y="0" type="move" name="bottomright"/>
    </contour>
    <contour>
      <point x="83" y="1292" type="line"/>
      <point x="83" y="1244" type="line"/>
      <point x="306" y="1224" type="line"/>
      <point x="306" y="69" type="line"/>
      <point x="74" y="52" type="line"/>
      <point x="74" y="0" type="line"/>
      <point x="852" y="0" type="line"/>
      <point x="852" y="52" type="line"/>
      <point x="471" y="69" type="line"/>
      <point x="471" y="1240" type="line"/>
      <point x="991" y="1234" type="line"/>
      <point x="1043" y="893" type="line"/>
      <point x="1153" y="893" type="line"/>
      <point x="1147" y="1292" type="line"/>
    </contour>
  </outline>
</glyph>
<glyph name="gedescender-cy.sc" format="1">
  <advance width="1199"/>
  <outline>
    <contour>
      <point x="680" y="-144" type="move" name="mark0"/>
    </contour>
    <contour>
      <point x="902" y="69" type="curve"/>
      <point x="471" y="69" type="line"/>
      <point x="471" y="1240" type="line"/>
      <point x="991" y="1234" type="line"/>
      <point x="1042" y="893" type="line"/>
      <point x="1153" y="893" type="line"/>
      <point x="1147" y="1292" type="line"/>
      <point x="83" y="1292" type="line"/>
      <point x="83" y="1244" type="line"/>
      <point x="306" y="1224" type="line"/>
      <point x="306" y="69" type="line"/>
      <point x="74" y="52" type="line"/>
      <point x="74" y="0" type="line"/>
      <point x="723" y="0" type="line"/>
      <point x="725" y="0"/>
      <point x="738" y="-259"/>
      <point x="738" y="-293" type="curve"/>
      <point x="845" y="-293" type="line"/>
      <point x="846" y="-303"/>
      <point x="902" y="110"/>
    </contour>
  </outline>
</glyph>
<glyph name="gestrokehook-cy.sc" format="1">
  <advance width="1223"/>
  <outline>
    <contour>
      <point x="848" y="52" type="curve"/>
      <point x="471" y="69" type="line"/>
      <point x="471" y="617" type="line"/>
      <point x="892" y="617" type="line"/>
      <point x="892" y="677" type="line"/>
      <point x="471" y="677" type="line"/>
      <point x="471" y="1240" type="line"/>
      <point x="991" y="1234" type="line"/>
      <point x="1043" y="893" type="line"/>
      <point x="1153" y="893" type="line"/>
      <point x="1147" y="1292" type="line"/>
      <point x="83" y="1292" type="line"/>
      <point x="83" y="1244" type="line"/>
      <point x="306" y="1224" type="line"/>
      <point x="306" y="677" type="line"/>
      <point x="104" y="677" type="line"/>
      <point x="104" y="617" type="line"/>
      <point x="306" y="617" type="line"/>
      <point x="306" y="69" type="line"/>
      <point x="74" y="52" type="line"/>
      <point x="74" y="0" type="line"/>
      <point x="789" y="0" type="line"/>
      <point x="814" y="-67"/>
      <point x="830" y="-128"/>
      <point x="830" y="-164" type="curve" smooth="yes"/>
      <point x="830" y="-269"/>
      <point x="773" y="-312"/>
      <point x="669" y="-312" type="curve" smooth="yes"/>
      <point x="654" y="-312"/>
      <point x="608" y="-308"/>
      <point x="572" y="-296" type="curve"/>
      <point x="569" y="-368" type="line"/>
      <point x="609" y="-380"/>
      <point x="670" y="-388"/>
      <point x="718" y="-388" type="curve" smooth="yes"/>
      <point x="872" y="-388"/>
      <point x="972" y="-320"/>
      <point x="972" y="-235" type="curve" smooth="yes"/>
      <point x="972" y="-130"/>
      <point x="896" y="-10"/>
    </contour>
  </outline>
</glyph>
<glyph name="ghemiddlehook-cy.sc" format="1">
  <advance width="1419"/>
  <outline>
    <contour>
      <point x="523" y="667" type="curve"/>
      <point x="523" y="1239" type="line"/>
      <point x="1042" y="1226" type="line"/>
      <point x="1095" y="970" type="line"/>
      <point x="1205" y="970" type="line"/>
      <point x="1195" y="1292" type="line"/>
      <point x="135" y="1292" type="line"/>
      <point x="135" y="1244" type="line"/>
      <point x="358" y="1224" type="line"/>
      <point x="358" y="69" type="line"/>
      <point x="126" y="53" type="line"/>
      <point x="126" y="0" type="line"/>
      <point x="777" y="0" type="line"/>
      <point x="777" y="53" type="line"/>
      <point x="523" y="69" type="line"/>
      <point x="523" y="618" type="line"/>
      <point x="636" y="660"/>
      <point x="733" y="669"/>
      <point x="845" y="669" type="curve" smooth="yes"/>
      <point x="1092" y="669"/>
      <point x="1170" y="539"/>
      <point x="1170" y="310" type="curve" smooth="yes"/>
      <point x="1170" y="-62"/>
      <point x="1079" y="-269"/>
      <point x="846" y="-269" type="curve" smooth="yes"/>
      <point x="811" y="-269"/>
      <point x="776" y="-270"/>
      <point x="759" y="-271" type="curve"/>
      <point x="760" y="-331" type="line"/>
      <point x="785" y="-340"/>
      <point x="841" y="-337"/>
      <point x="869" y="-337" type="curve" smooth="yes"/>
      <point x="1178" y="-337"/>
      <point x="1331" y="-34"/>
      <point x="1331" y="309" type="curve" smooth="yes"/>
      <point x="1331" y="510"/>
      <point x="1270" y="737"/>
      <point x="881" y="737" type="curve" smooth="yes"/>
      <point x="803" y="737"/>
      <point x="611" y="721"/>
    </contour>
  </outline>
</glyph>
<glyph name="ghestroke-cy.sc" format="1">
  <advance width="1223"/>
  <outline>
    <contour>
      <point x="83" y="1292" type="line"/>
      <point x="83" y="1244" type="line"/>
      <point x="306" y="1224" type="line"/>
      <point x="306" y="677" type="line"/>
      <point x="104" y="677" type="line"/>
      <point x="104" y="617" type="line"/>
      <point x="306" y="617" type="line"/>
      <point x="306" y="69" type="line"/>
      <point x="74" y="52" type="line"/>
      <point x="74" y="0" type="line"/>
      <point x="852" y="0" type="line"/>
      <point x="852" y="52" type="line"/>
      <point x="471" y="69" type="line"/>
      <point x="471" y="617" type="line"/>
      <point x="892" y="617" type="line"/>
      <point x="892" y="677" type="line"/>
      <point x="471" y="677" type="line"/>
      <point x="471" y="1240" type="line"/>
      <point x="991" y="1234" type="line"/>
      <point x="1043" y="893" type="line"/>
      <point x="1153" y="893" type="line"/>
      <point x="1147" y="1292" type="line"/>
    </contour>
  </outline>
</glyph>
<glyph name="gheupturn-cy.sc" format="1">
  <advance width="1216"/>
  <outline>
    <contour>
      <point x="705" y="-144" type="move" name="mark0"/>
    </contour>
    <contour>
      <point x="1041" y="1598" type="line"/>
      <point x="987" y="1292" type="line"/>
      <point x="104" y="1292" type="line"/>
      <point x="104" y="1244" type="line"/>
      <point x="338" y="1223" type="line"/>
      <point x="338" y="69" type="line"/>
      <point x="100" y="51" type="line"/>
      <point x="100" y="0" type="line"/>
      <point x="880" y="0" type="line"/>
      <point x="880" y="51" type="line"/>
      <point x="503" y="69" type="line"/>
      <point x="503" y="1240" type="line"/>
      <point x="1141" y="1236" type="line"/>
      <point x="1161" y="1598" type="line"/>
    </contour>
  </outline>
</glyph>
<glyph name="haabkhasian-cy.sc" format="1">
  <advance width="1744"/>
  <outline>
    <contour>
      <point x="888" y="1229" type="curve"/>
      <point x="905" y="1301" type="line"/>
      <point x="871" y="1305"/>
      <point x="808" y="1306"/>
      <point x="770" y="1306" type="curve" smooth="yes"/>
      <point x="440" y="1306"/>
      <point x="93" y="1076"/>
      <point x="93" y="634" type="curve" smooth="yes"/>
      <point x="93" y="264"/>
      <point x="337" y="-20"/>
      <point x="783" y="-20" type="curve" smooth="yes"/>
      <point x="891" y="-20"/>
      <point x="998" y="3"/>
      <point x="1087" y="52" type="curve"/>
      <point x="1177" y="16"/>
      <point x="1291" y="-20"/>
      <point x="1431" y="-20" type="curve" smooth="yes"/>
      <point x="1534" y="-20"/>
      <point x="1632" y="3"/>
      <point x="1709" y="50" type="curve"/>
      <point x="1666" y="86" type="line"/>
      <point x="1611" y="54"/>
      <point x="1533" y="44"/>
      <point x="1461" y="44" type="curve" smooth="yes"/>
      <point x="1367" y="44"/>
      <point x="1276" y="66"/>
      <point x="1215" y="99" type="curve"/>
      <point x="1336" y="156"/>
      <point x="1545" y="348"/>
      <point x="1545" y="602" type="curve" smooth="yes"/>
      <point x="1545" y="953"/>
      <point x="1335" y="1054"/>
      <point x="1116" y="1054" type="curve" smooth="yes"/>
      <point x="898" y="1054"/>
      <point x="684" y="938"/>
      <point x="684" y="591" type="curve" smooth="yes"/>
      <point x="684" y="384"/>
      <point x="842" y="151"/>
      <point x="1000" y="83" type="curve"/>
      <point x="898" y="42"/>
      <point x="842" y="44"/>
      <point x="801" y="44" type="curve" smooth="yes"/>
      <point x="524" y="44"/>
      <point x="273" y="271"/>
      <point x="273" y="636" type="curve" smooth="yes"/>
      <point x="273" y="1059"/>
      <point x="501" y="1244"/>
      <point x="761" y="1244" type="curve" smooth="yes"/>
      <point x="801" y="1244"/>
      <point x="848" y="1240"/>
    </contour>
    <contour>
      <point x="1114" y="1007" type="curve" smooth="yes"/>
      <point x="1288" y="1007"/>
      <point x="1367" y="857"/>
      <point x="1367" y="600" type="curve" smooth="yes"/>
      <point x="1367" y="370"/>
      <point x="1262" y="200"/>
      <point x="1131" y="123" type="curve"/>
      <point x="989" y="209"/>
      <point x="860" y="394"/>
      <point x="860" y="577" type="curve" smooth="yes"/>
      <point x="860" y="886"/>
      <point x="962" y="1007"/>
    </contour>
  </outline>
</glyph>
<glyph name="hadescender-cy.sc" format="1">
  <advance width="1510"/>
  <outline>
    <contour>
      <point x="757" y="-144" type="move" name="mark0"/>
    </contour>
    <contour>
      <point x="1537" y="69" type="curve"/>
      <point x="1322" y="69" type="line"/>
      <point x="845" y="659" type="line"/>
      <point x="1285" y="1224" type="line"/>
      <point x="1451" y="1241" type="line"/>
      <point x="1451" y="1292" type="line"/>
      <point x="954" y="1292" type="line"/>
      <point x="954" y="1241" type="line"/>
      <point x="1143" y="1227" type="line"/>
      <point x="789" y="701" type="line"/>
      <point x="431" y="1225" type="line"/>
      <point x="649" y="1241" type="line"/>
      <point x="649" y="1292" type="line"/>
      <point x="70" y="1292" type="line"/>
      <point x="70" y="1241" type="line"/>
      <point x="232" y="1224" type="line"/>
      <point x="676" y="672" type="line"/>
      <point x="213" y="67" type="line"/>
      <point x="30" y="53" type="line"/>
      <point x="30" y="0" type="line"/>
      <point x="580" y="0" type="line"/>
      <point x="580" y="53" type="line"/>
      <point x="363" y="67" type="line"/>
      <point x="736" y="630" type="line"/>
      <point x="1123" y="69" type="line"/>
      <point x="915" y="53" type="line"/>
      <point x="915" y="0" type="line"/>
      <point x="1359" y="0" type="line"/>
      <point x="1358" y="12"/>
      <point x="1371" y="-247"/>
      <point x="1373" y="-284" type="curve"/>
      <point x="1480" y="-284" type="line"/>
      <point x="1484" y="-284"/>
      <point x="1537" y="125"/>
    </contour>
  </outline>
</glyph>
<glyph name="hahook-cy.sc" format="1">
  <advance width="1514"/>
  <outline>
    <contour>
      <point x="848" y="664" type="curve"/>
      <point x="1285" y="1224" type="line"/>
      <point x="1451" y="1241" type="line"/>
      <point x="1451" y="1292" type="line"/>
      <point x="954" y="1292" type="line"/>
      <point x="954" y="1241" type="line"/>
      <point x="1143" y="1227" type="line"/>
      <point x="793" y="708" type="line"/>
      <point x="431" y="1225" type="line"/>
      <point x="649" y="1241" type="line"/>
      <point x="649" y="1292" type="line"/>
      <point x="70" y="1292" type="line"/>
      <point x="70" y="1241" type="line"/>
      <point x="232" y="1224" type="line"/>
      <point x="680" y="676" type="line"/>
      <point x="213" y="67" type="line"/>
      <point x="30" y="53" type="line"/>
      <point x="30" y="0" type="line"/>
      <point x="580" y="0" type="line"/>
      <point x="580" y="53" type="line"/>
      <point x="363" y="67" type="line"/>
      <point x="739" y="632" type="line"/>
      <point x="1097" y="136"/>
      <point x="1155" y="40"/>
      <point x="1155" y="-36" type="curve" smooth="yes"/>
      <point x="1155" y="-138"/>
      <point x="1092" y="-205"/>
      <point x="913" y="-243" type="curve"/>
      <point x="952" y="-334" type="line"/>
      <point x="1256" y="-254"/>
      <point x="1314" y="-117"/>
      <point x="1314" y="-22" type="curve" smooth="yes"/>
      <point x="1314" y="106"/>
      <point x="1152" y="268"/>
    </contour>
  </outline>
</glyph>
<glyph name="hardsign-cy.sc" format="1">
  <advance width="1720"/>
  <outline>
    <contour>
      <point x="773" y="-144" type="move" name="mark0"/>
    </contour>
    <contour>
      <point x="1107" y="798" type="curve" smooth="yes"/>
      <point x="832" y="798" type="line"/>
      <point x="832" y="1227" type="line"/>
      <point x="1020" y="1240" type="line"/>
      <point x="1020" y="1292" type="line"/>
      <point x="124" y="1292" type="line"/>
      <point x="99" y="932" type="line"/>
      <point x="214" y="932" type="line"/>
      <point x="268" y="1226" type="line"/>
      <point x="667" y="1239" type="line"/>
      <point x="667" y="69" type="line"/>
      <point x="396" y="52" type="line"/>
      <point x="396" y="0" type="line"/>
      <point x="757" y="0" type="line" smooth="yes"/>
      <point x="844" y="0"/>
      <point x="1028" y="-14"/>
      <point x="1078" y="-14" type="curve" smooth="yes"/>
      <point x="1405" y="-14"/>
      <point x="1632" y="126"/>
      <point x="1632" y="411" type="curve" smooth="yes"/>
      <point x="1632" y="655"/>
      <point x="1446" y="798"/>
    </contour>
    <contour>
      <point x="832" y="62" type="curve"/>
      <point x="832" y="729" type="line"/>
      <point x="1067" y="729" type="line" smooth="yes"/>
      <point x="1317" y="729"/>
      <point x="1463" y="608"/>
      <point x="1463" y="406" type="curve" smooth="yes"/>
      <point x="1463" y="156"/>
      <point x="1315" y="45"/>
      <point x="1067" y="45" type="curve" smooth="yes"/>
      <point x="935" y="45"/>
      <point x="887" y="54"/>
    </contour>
  </outline>
</glyph>
<glyph name="hastroke-cy.sc" format="1">
  <advance width="1514"/>
  <outline>
    <contour>
      <point x="1200" y="699" type="line"/>
      <point x="346" y="699" type="line"/>
      <point x="346" y="641" type="line"/>
      <point x="1200" y="641" type="line"/>
    </contour>
    <contour>
      <point x="213" y="67" type="line"/>
      <point x="30" y="53" type="line"/>
      <point x="30" y="0" type="line"/>
      <point x="580" y="0" type="line"/>
      <point x="580" y="53" type="line"/>
      <point x="364" y="67" type="line"/>
      <point x="737" y="630" type="line"/>
      <point x="1124" y="69" type="line"/>
      <point x="915" y="53" type="line"/>
      <point x="915" y="0" type="line"/>
      <point x="1492" y="0" type="line"/>
      <point x="1492" y="53" type="line"/>
      <point x="1323" y="69" type="line"/>
      <point x="846" y="659" type="line"/>
      <point x="1285" y="1224" type="line"/>
      <point x="1451" y="1241" type="line"/>
      <point x="1451" y="1292" type="line"/>
      <point x="954" y="1292" type="line"/>
      <point x="954" y="1241" type="line"/>
      <point x="1144" y="1227" type="line"/>
      <point x="790" y="701" type="line"/>
      <point x="432" y="1225" type="line"/>
      <point x="650" y="1241" type="line"/>
      <point x="650" y="1292" type="line"/>
      <point x="70" y="1292" type="line"/>
      <point x="70" y="1241" type="line"/>
      <point x="233" y="1224" type="line"/>
      <point x="677" y="672" type="line"/>
    </contour>
  </outline>
</glyph>
<glyph name="ia-cy.sc" format="1">
  <advance width="1478"/>
  <outline>
    <contour>
      <point x="1008" y="583" type="curve"/>
      <point x="1008" y="67" type="line"/>
      <point x="800" y="52" type="line"/>
      <point x="800" y="0" type="line"/>
      <point x="1373" y="0" type="line"/>
      <point x="1373" y="52" type="line"/>
      <point x="1168" y="67" type="line"/>
      <point x="1168" y="1227" type="line"/>
      <point x="1354" y="1241" type="line"/>
      <point x="1354" y="1292" type="line"/>
      <point x="1065" y="1292" type="line" smooth="yes"/>
      <point x="963" y="1292"/>
      <point x="877" y="1308"/>
      <point x="781" y="1308" type="curve" smooth="yes"/>
      <point x="486" y="1308"/>
      <point x="208" y="1280"/>
      <point x="208" y="927" type="curve" smooth="yes"/>
      <point x="208" y="721"/>
      <point x="335" y="617"/>
      <point x="511" y="575" type="curve"/>
      <point x="371" y="495"/>
      <point x="189" y="83"/>
      <point x="87" y="70" type="curve"/>
      <point x="2" y="52" type="line"/>
      <point x="2" y="0" type="line"/>
      <point x="231" y="0" type="line" smooth="yes"/>
      <point x="340" y="0"/>
      <point x="514" y="478"/>
      <point x="665" y="582" type="curve"/>
      <point x="776" y="584"/>
      <point x="894" y="584"/>
    </contour>
    <contour>
      <point x="1008" y="1224" type="curve"/>
      <point x="1008" y="660" type="line"/>
      <point x="967" y="658"/>
      <point x="880" y="654"/>
      <point x="748" y="654" type="curve" smooth="yes"/>
      <point x="512" y="654"/>
      <point x="373" y="768"/>
      <point x="373" y="954" type="curve" smooth="yes"/>
      <point x="373" y="1184"/>
      <point x="527" y="1239"/>
      <point x="749" y="1239" type="curve" smooth="yes"/>
      <point x="888" y="1239"/>
      <point x="936" y="1224"/>
    </contour>
  </outline>
</glyph>
<glyph name="ii-cy.sc" format="1">
  <advance width="1789"/>
  <outline>
    <contour>
      <point x="916" y="1263" type="move" name="top"/>
    </contour>
    <contour>
      <point x="1516" y="0" type="move" name="bottomright"/>
    </contour>
    <contour>
      <point x="139" y="1292" type="line"/>
      <point x="139" y="1241" type="line"/>
      <point x="312" y="1226" type="line"/>
      <point x="312" y="67" type="line"/>
      <point x="130" y="53" type="line"/>
      <point x="130" y="0" type="line"/>
      <point x="672" y="0" type="line"/>
      <point x="672" y="53" type="line"/>
      <point x="468" y="69" type="line"/>
      <point x="468" y="145" type="line"/>
      <point x="1144" y="855" type="line"/>
      <point x="1322" y="1072" type="line"/>
      <point x="1322" y="69" type="line"/>
      <point x="1128" y="53" type="line"/>
      <point x="1128" y="0" type="line"/>
      <point x="1667" y="0" type="line"/>
      <point x="1667" y="53" type="line"/>
      <point x="1480" y="69" type="line"/>
      <point x="1480" y="1227" type="line"/>
      <point x="1653" y="1241" type="line"/>
      <point x="1653" y="1292" type="line"/>
      <point x="1128" y="1292" type="line"/>
      <point x="1128" y="1241" type="line"/>
      <point x="1322" y="1227" type="line"/>
      <point x="1322" y="1168" type="line"/>
      <point x="666" y="476" type="line"/>
      <point x="468" y="238" type="line"/>
      <point x="468" y="1228" type="line"/>
      <point x="684" y="1243" type="line"/>
      <point x="684" y="1292" type="line"/>
    </contour>
  </outline>
</glyph>
<glyph name="iishorttail-cy.sc" format="1">
  <advance width="1792"/>
  <outline>
    <contour>
      <point x="1485" y="0" type="move" name="bottomright"/>
    </contour>
    <contour>
      <point x="1698" y="0" type="curve"/>
      <point x="1698" y="67" type="line"/>
      <point x="1451" y="67" type="line"/>
      <point x="1456" y="0" type="line"/>
      <point x="1551" y="0" type="line"/>
      <point x="1541" y="-32"/>
      <point x="1465" y="-332"/>
      <point x="1464" y="-290" type="curve"/>
      <point x="1582" y="-290" type="line"/>
      <point x="1587" y="-292"/>
      <point x="1700" y="42"/>
    </contour>
    <contour>
      <point x="646" y="1858" type="curve" smooth="yes"/>
      <point x="526" y="1858" type="line"/>
      <point x="526" y="1850"/>
      <point x="524" y="1842"/>
      <point x="524" y="1836" type="curve" smooth="yes"/>
      <point x="524" y="1633"/>
      <point x="662" y="1476"/>
      <point x="920" y="1476" type="curve" smooth="yes"/>
      <point x="1181" y="1476"/>
      <point x="1311" y="1630"/>
      <point x="1311" y="1836" type="curve" smooth="yes"/>
      <point x="1311" y="1845"/>
      <point x="1308" y="1846"/>
      <point x="1309" y="1858" type="curve"/>
      <point x="1189" y="1858" type="line" smooth="yes"/>
      <point x="1161" y="1858"/>
      <point x="1157" y="1839"/>
      <point x="1157" y="1806" type="curve" smooth="yes"/>
      <point x="1157" y="1696"/>
      <point x="1105" y="1556"/>
      <point x="922" y="1556" type="curve" smooth="yes"/>
      <point x="735" y="1556"/>
      <point x="678" y="1696"/>
      <point x="678" y="1806" type="curve" smooth="yes"/>
      <point x="678" y="1839"/>
      <point x="674" y="1858"/>
    </contour>
    <contour>
      <point x="139" y="1292" type="line"/>
      <point x="139" y="1241" type="line"/>
      <point x="312" y="1226" type="line"/>
      <point x="312" y="67" type="line"/>
      <point x="130" y="53" type="line"/>
      <point x="130" y="0" type="line"/>
      <point x="672" y="0" type="line"/>
      <point x="672" y="53" type="line"/>
      <point x="468" y="69" type="line"/>
      <point x="468" y="145" type="line"/>
      <point x="1144" y="855" type="line"/>
      <point x="1322" y="1072" type="line"/>
      <point x="1322" y="69" type="line"/>
      <point x="1128" y="53" type="line"/>
      <point x="1128" y="0" type="line"/>
      <point x="1667" y="0" type="line"/>
      <point x="1667" y="53" type="line"/>
      <point x="1480" y="69" type="line"/>
      <point x="1480" y="1227" type="line"/>
      <point x="1653" y="1241" type="line"/>
      <point x="1653" y="1292" type="line"/>
      <point x="1128" y="1292" type="line"/>
      <point x="1128" y="1241" type="line"/>
      <point x="1322" y="1227" type="line"/>
      <point x="1322" y="1168" type="line"/>
      <point x="666" y="476" type="line"/>
      <point x="468" y="238" type="line"/>
      <point x="468" y="1228" type="line"/>
      <point x="684" y="1243" type="line"/>
      <point x="684" y="1292" type="line"/>
    </contour>
  </outline>
</glyph>
<glyph name="iu-cy.sc" format="1">
  <advance width="2246"/>
  <outline>
    <contour>
      <point x="837" y="700" type="curve"/>
      <point x="465" y="700" type="line"/>
      <point x="465" y="1227" type="line"/>
      <point x="643" y="1241" type="line"/>
      <point x="643" y="1292" type="line"/>
      <point x="137" y="1292" type="line"/>
      <point x="137" y="1241" type="line"/>
      <point x="310" y="1227" type="line"/>
      <point x="310" y="69" type="line"/>
      <point x="130" y="53" type="line"/>
      <point x="130" y="0" type="line"/>
      <point x="652" y="0" type="line"/>
      <point x="652" y="53" type="line"/>
      <point x="467" y="69" type="line"/>
      <point x="467" y="644" type="line"/>
      <point x="830" y="644" type="line"/>
      <point x="825" y="254"/>
      <point x="1077" y="-15"/>
      <point x="1486" y="-15" type="curve" smooth="yes"/>
      <point x="1842" y="-15"/>
      <point x="2141" y="225"/>
      <point x="2151" y="654" type="curve" smooth="yes"/>
      <point x="2160" y="1028"/>
      <point x="1912" y="1307"/>
      <point x="1518" y="1306" type="curve" smooth="yes"/>
      <point x="1192" y="1306"/>
      <point x="881" y="1088"/>
    </contour>
    <contour>
      <point x="1505" y="1234" type="curve" smooth="yes"/>
      <point x="1810" y="1234"/>
      <point x="1978" y="940"/>
      <point x="1978" y="655" type="curve" smooth="yes"/>
      <point x="1978" y="247"/>
      <point x="1790" y="60"/>
      <point x="1500" y="60" type="curve" smooth="yes"/>
      <point x="1178" y="60"/>
      <point x="1003" y="348"/>
      <point x="1003" y="626" type="curve" smooth="yes"/>
      <point x="1003" y="1052"/>
      <point x="1222" y="1234"/>
    </contour>
  </outline>
</glyph>
<glyph name="izhitsa-cy.sc" format="1">
  <advance width="1520"/>
  <outline>
    <contour>
      <point x="1133" y="1080" type="curve"/>
      <point x="847" y="359" type="line"/>
      <point x="769" y="76" type="line"/>
      <point x="682" y="361" type="line"/>
      <point x="329" y="1228" type="line"/>
      <point x="514" y="1241" type="line"/>
      <point x="514" y="1292" type="line"/>
      <point x="32" y="1292" type="line"/>
      <point x="32" y="1241" type="line"/>
      <point x="159" y="1228" type="line"/>
      <point x="689" y="-15" type="line"/>
      <point x="815" y="-15" type="line"/>
      <point x="1230" y="1011" type="line"/>
      <point x="1285" y="1192"/>
      <point x="1392" y="1197"/>
      <point x="1478" y="1197" type="curve" smooth="yes"/>
      <point x="1490" y="1197"/>
      <point x="1500" y="1197"/>
      <point x="1500" y="1197" type="curve"/>
      <point x="1500" y="1282" type="line"/>
      <point x="1490" y="1283"/>
      <point x="1472" y="1289"/>
      <point x="1418" y="1289" type="curve" smooth="yes"/>
      <point x="1320" y="1289"/>
      <point x="1182" y="1245"/>
    </contour>
  </outline>
</glyph>
<glyph name="ka-cy.sc" format="1">
  <advance width="1477"/>
  <outline>
    <contour>
      <point x="740" y="1263" type="move" name="top"/>
    </contour>
    <contour>
      <point x="740" y="648" type="move" name="center"/>
    </contour>
    <contour>
      <point x="1422" y="0" type="move" name="bottomright"/>
    </contour>
    <contour>
      <point x="774" y="651" type="curve"/>
      <point x="1260" y="1227" type="line"/>
      <point x="1418" y="1241" type="line"/>
      <point x="1418" y="1292" type="line"/>
      <point x="934" y="1292" type="line"/>
      <point x="934" y="1241" type="line"/>
      <point x="1122" y="1226" type="line"/>
      <point x="662" y="662" type="line"/>
      <point x="462" y="662" type="line"/>
      <point x="462" y="1227" type="line"/>
      <point x="642" y="1241" type="line"/>
      <point x="642" y="1292" type="line"/>
      <point x="133" y="1292" type="line"/>
      <point x="133" y="1241" type="line"/>
      <point x="307" y="1227" type="line"/>
      <point x="307" y="69" type="line"/>
      <point x="133" y="56" type="line"/>
      <point x="133" y="0" type="line"/>
      <point x="645" y="0" type="line"/>
      <point x="645" y="54" type="line"/>
      <point x="462" y="69" type="line"/>
      <point x="462" y="601" type="line"/>
      <point x="622" y="601" type="line" smooth="yes"/>
      <point x="789" y="601"/>
      <point x="1098" y="0"/>
      <point x="1239" y="0" type="curve"/>
      <point x="1443" y="0" type="line"/>
      <point x="1443" y="53" type="line"/>
      <point x="1362" y="69" type="line" smooth="yes"/>
      <point x="1245" y="93"/>
      <point x="961" y="570"/>
    </contour>
  </outline>
</glyph>
<glyph name="kabashkir-cy.sc" format="1">
  <advance width="1778"/>
  <outline>
    <contour>
      <point x="1122" y="-144" type="move" name="mark0"/>
    </contour>
    <contour>
      <point x="1096" y="654" type="curve"/>
      <point x="1575" y="1227" type="line"/>
      <point x="1738" y="1241" type="line"/>
      <point x="1738" y="1292" type="line"/>
      <point x="1258" y="1292" type="line"/>
      <point x="1258" y="1241" type="line"/>
      <point x="1430" y="1226" type="line"/>
      <point x="978" y="670" type="line"/>
      <point x="784" y="670" type="line"/>
      <point x="784" y="1227" type="line"/>
      <point x="980" y="1241" type="line"/>
      <point x="980" y="1292" type="line"/>
      <point x="122" y="1292" type="line"/>
      <point x="101" y="927" type="line"/>
      <point x="221" y="927" type="line"/>
      <point x="275" y="1226" type="line"/>
      <point x="628" y="1240" type="line"/>
      <point x="628" y="69" type="line"/>
      <point x="441" y="53" type="line"/>
      <point x="441" y="0" type="line"/>
      <point x="974" y="0" type="line"/>
      <point x="974" y="54" type="line"/>
      <point x="784" y="67" type="line"/>
      <point x="784" y="594" type="line"/>
      <point x="942" y="594" type="line" smooth="yes"/>
      <point x="1109" y="594"/>
      <point x="1413" y="0"/>
      <point x="1555" y="0" type="curve"/>
      <point x="1761" y="0" type="line"/>
      <point x="1761" y="53" type="line"/>
      <point x="1679" y="72" type="line" smooth="yes"/>
      <point x="1569" y="96"/>
      <point x="1286" y="562"/>
    </contour>
  </outline>
</glyph>
<glyph name="kadescender-cy.sc" format="1">
  <advance width="1471"/>
  <outline>
    <contour>
      <point x="767" y="651" type="curve"/>
      <point x="1254" y="1227" type="line"/>
      <point x="1411" y="1241" type="line"/>
      <point x="1411" y="1292" type="line"/>
      <point x="927" y="1292" type="line"/>
      <point x="927" y="1241" type="line"/>
      <point x="1115" y="1226" type="line"/>
      <point x="655" y="662" type="line"/>
      <point x="456" y="662" type="line"/>
      <point x="456" y="1227" type="line"/>
      <point x="636" y="1241" type="line"/>
      <point x="636" y="1292" type="line"/>
      <point x="126" y="1292" type="line"/>
      <point x="126" y="1241" type="line"/>
      <point x="301" y="1227" type="line"/>
      <point x="301" y="69" type="line"/>
      <point x="126" y="56" type="line"/>
      <point x="126" y="0" type="line"/>
      <point x="639" y="0" type="line"/>
      <point x="639" y="54" type="line"/>
      <point x="456" y="69" type="line"/>
      <point x="456" y="601" type="line"/>
      <point x="615" y="601" type="line" smooth="yes"/>
      <point x="782" y="601"/>
      <point x="1091" y="0"/>
      <point x="1233" y="0" type="curve" smooth="yes"/>
      <point x="1287" y="0" type="line"/>
      <point x="1289" y="6"/>
      <point x="1301" y="-277"/>
      <point x="1301" y="-293" type="curve"/>
      <point x="1410" y="-293" type="line"/>
      <point x="1429" y="-134"/>
      <point x="1449" y="-40"/>
      <point x="1465" y="69" type="curve"/>
      <point x="1353" y="69" type="line"/>
      <point x="1233" y="104"/>
      <point x="952" y="570"/>
    </contour>
  </outline>
</glyph>
<glyph name="kahook-cy.sc" format="1">
  <advance width="1482"/>
  <outline>
    <contour>
      <point x="462" y="676" type="curve"/>
      <point x="462" y="1227" type="line"/>
      <point x="642" y="1241" type="line"/>
      <point x="642" y="1292" type="line"/>
      <point x="133" y="1292" type="line"/>
      <point x="133" y="1241" type="line"/>
      <point x="307" y="1227" type="line"/>
      <point x="307" y="69" type="line"/>
      <point x="133" y="56" type="line"/>
      <point x="133" y="0" type="line"/>
      <point x="645" y="0" type="line"/>
      <point x="645" y="54" type="line"/>
      <point x="462" y="69" type="line"/>
      <point x="462" y="621" type="line"/>
      <point x="578" y="642"/>
      <point x="646" y="660"/>
      <point x="786" y="660" type="curve" smooth="yes"/>
      <point x="1034" y="660"/>
      <point x="1137" y="540"/>
      <point x="1137" y="310" type="curve" smooth="yes"/>
      <point x="1137" y="-84"/>
      <point x="1016" y="-259"/>
      <point x="779" y="-259" type="curve" smooth="yes"/>
      <point x="746" y="-259"/>
      <point x="712" y="-260"/>
      <point x="697" y="-257" type="curve"/>
      <point x="695" y="-329" type="line"/>
      <point x="718" y="-338"/>
      <point x="785" y="-335"/>
      <point x="810" y="-335" type="curve" smooth="yes"/>
      <point x="1122" y="-335"/>
      <point x="1299" y="-44"/>
      <point x="1299" y="310" type="curve" smooth="yes"/>
      <point x="1299" y="527"/>
      <point x="1209" y="732"/>
      <point x="849" y="735" type="curve"/>
      <point x="1259" y="1227" type="line"/>
      <point x="1419" y="1241" type="line"/>
      <point x="1419" y="1292" type="line"/>
      <point x="939" y="1292" type="line"/>
      <point x="939" y="1241" type="line"/>
      <point x="1120" y="1227" type="line"/>
      <point x="708" y="730" type="line"/>
      <point x="621" y="716"/>
      <point x="529" y="697"/>
    </contour>
  </outline>
</glyph>
<glyph name="kastroke-cy.sc" format="1">
  <advance width="1472"/>
  <outline>
    <contour>
      <point x="788" y="-144" type="move" name="mark0"/>
    </contour>
    <contour>
      <point x="765" y="651" type="curve"/>
      <point x="1253" y="1228" type="line"/>
      <point x="1410" y="1241" type="line"/>
      <point x="1410" y="1292" type="line"/>
      <point x="926" y="1292" type="line"/>
      <point x="926" y="1241" type="line"/>
      <point x="1114" y="1226" type="line"/>
      <point x="652" y="661" type="line"/>
      <point x="455" y="661" type="line"/>
      <point x="455" y="916" type="line"/>
      <point x="639" y="916" type="line"/>
      <point x="639" y="992" type="line"/>
      <point x="455" y="992" type="line"/>
      <point x="455" y="1228" type="line"/>
      <point x="634" y="1241" type="line"/>
      <point x="634" y="1292" type="line"/>
      <point x="125" y="1292" type="line"/>
      <point x="125" y="1241" type="line"/>
      <point x="299" y="1228" type="line"/>
      <point x="299" y="992" type="line"/>
      <point x="131" y="992" type="line"/>
      <point x="131" y="916" type="line"/>
      <point x="299" y="916" type="line"/>
      <point x="299" y="69" type="line"/>
      <point x="125" y="56" type="line"/>
      <point x="125" y="0" type="line"/>
      <point x="638" y="0" type="line"/>
      <point x="638" y="54" type="line"/>
      <point x="455" y="69" type="line"/>
      <point x="455" y="601" type="line"/>
      <point x="613" y="601" type="line" smooth="yes"/>
      <point x="779" y="601"/>
      <point x="1090" y="0"/>
      <point x="1231" y="0" type="curve" smooth="yes"/>
      <point x="1435" y="0" type="line"/>
      <point x="1435" y="53" type="line"/>
      <point x="1354" y="69" type="line" smooth="yes"/>
      <point x="1237" y="92"/>
      <point x="950" y="570"/>
    </contour>
  </outline>
</glyph>
<glyph name="kaverticalstroke-cy.sc" format="1">
  <advance width="1555"/>
  <outline>
    <contour>
      <point x="936" y="651" type="curve"/>
      <point x="1341" y="1226" type="line"/>
      <point x="1493" y="1241" type="line"/>
      <point x="1493" y="1292" type="line"/>
      <point x="1016" y="1292" type="line"/>
      <point x="1016" y="1241" type="line"/>
      <point x="1202" y="1224" type="line"/>
      <point x="818" y="670" type="line"/>
      <point x="736" y="670" type="line"/>
      <point x="736" y="964" type="line"/>
      <point x="632" y="964" type="line"/>
      <point x="632" y="670" type="line"/>
      <point x="462" y="670" type="line"/>
      <point x="462" y="1227" type="line"/>
      <point x="642" y="1241" type="line"/>
      <point x="642" y="1292" type="line"/>
      <point x="133" y="1292" type="line"/>
      <point x="133" y="1241" type="line"/>
      <point x="307" y="1227" type="line"/>
      <point x="307" y="69" type="line"/>
      <point x="133" y="56" type="line"/>
      <point x="133" y="0" type="line"/>
      <point x="645" y="0" type="line"/>
      <point x="645" y="54" type="line"/>
      <point x="462" y="69" type="line"/>
      <point x="462" y="594" type="line"/>
      <point x="632" y="594" type="line"/>
      <point x="632" y="314" type="line"/>
      <point x="736" y="314" type="line"/>
      <point x="736" y="592" type="line"/>
      <point x="779" y="592" type="line" smooth="yes"/>
      <point x="948" y="639"/>
      <point x="1205" y="0"/>
      <point x="1346" y="0" type="curve" smooth="yes"/>
      <point x="1551" y="2" type="line"/>
      <point x="1551" y="53" type="line"/>
      <point x="1469" y="72" type="line" smooth="yes"/>
      <point x="1358" y="97"/>
      <point x="1116" y="548"/>
    </contour>
  </outline>
</glyph>
<glyph name="komide-cy.sc" format="1">
  <advance width="1355"/>
  <outline>
    <contour>
      <point x="830" y="0" type="curve"/>
      <point x="1227" y="0" type="line"/>
      <point x="1227" y="53" type="line"/>
      <point x="1045" y="67" type="line"/>
      <point x="1045" y="1236" type="line"/>
      <point x="1220" y="1257" type="line"/>
      <point x="1220" y="1292" type="line"/>
      <point x="676" y="1292" type="line"/>
      <point x="676" y="1257" type="line"/>
      <point x="888" y="1236" type="line"/>
      <point x="888" y="768" type="line"/>
      <point x="815" y="774"/>
      <point x="713" y="784"/>
      <point x="636" y="784" type="curve" smooth="yes"/>
      <point x="312" y="784"/>
      <point x="83" y="660"/>
      <point x="83" y="366" type="curve" smooth="yes"/>
      <point x="83" y="132"/>
      <point x="268" y="-12"/>
      <point x="609" y="-12" type="curve" smooth="yes"/>
      <point x="687" y="-12"/>
      <point x="769" y="-8"/>
    </contour>
    <contour>
      <point x="888" y="702" type="curve"/>
      <point x="888" y="77" type="line"/>
      <point x="829" y="66"/>
      <point x="730" y="63"/>
      <point x="651" y="63" type="curve" smooth="yes"/>
      <point x="403" y="63"/>
      <point x="250" y="153"/>
      <point x="250" y="378" type="curve" smooth="yes"/>
      <point x="250" y="616"/>
      <point x="402" y="720"/>
      <point x="650" y="720" type="curve" smooth="yes"/>
      <point x="766" y="720"/>
      <point x="823" y="711"/>
    </contour>
  </outline>
</glyph>
<glyph name="komidje-cy.sc" format="1">
  <advance width="1902"/>
  <outline>
    <contour>
      <point x="1688" y="286" type="curve" smooth="yes"/>
      <point x="1688" y="615" type="line"/>
      <point x="1842" y="630" type="line"/>
      <point x="1842" y="695" type="line"/>
      <point x="1359" y="695" type="line"/>
      <point x="1359" y="630" type="line"/>
      <point x="1529" y="614" type="line"/>
      <point x="1529" y="330" type="line" smooth="yes"/>
      <point x="1529" y="140"/>
      <point x="1465" y="54"/>
      <point x="1268" y="54" type="curve" smooth="yes"/>
      <point x="1096" y="54"/>
      <point x="1045" y="146"/>
      <point x="1046" y="335" type="curve" smooth="yes"/>
      <point x="1046" y="1235" type="line"/>
      <point x="1220" y="1258" type="line"/>
      <point x="1220" y="1292" type="line"/>
      <point x="676" y="1292" type="line"/>
      <point x="676" y="1258" type="line"/>
      <point x="888" y="1235" type="line"/>
      <point x="888" y="769" type="line"/>
      <point x="815" y="775"/>
      <point x="713" y="785"/>
      <point x="637" y="785" type="curve" smooth="yes"/>
      <point x="312" y="785"/>
      <point x="83" y="659"/>
      <point x="83" y="366" type="curve" smooth="yes"/>
      <point x="83" y="133"/>
      <point x="268" y="-12"/>
      <point x="609" y="-12" type="curve" smooth="yes"/>
      <point x="715" y="-12"/>
      <point x="860" y="-6"/>
      <point x="992" y="59" type="curve"/>
      <point x="1054" y="14"/>
      <point x="1142" y="-14"/>
      <point x="1265" y="-14" type="curve" smooth="yes"/>
      <point x="1539" y="-14"/>
      <point x="1688" y="111"/>
    </contour>
    <contour>
      <point x="888" y="702" type="curve"/>
      <point x="888" y="292" type="line" smooth="yes"/>
      <point x="888" y="251"/>
      <point x="892" y="194"/>
      <point x="917" y="141" type="curve"/>
      <point x="848" y="85"/>
      <point x="725" y="63"/>
      <point x="651" y="63" type="curve" smooth="yes"/>
      <point x="403" y="63"/>
      <point x="250" y="154"/>
      <point x="250" y="377" type="curve" smooth="yes"/>
      <point x="250" y="617"/>
      <point x="402" y="721"/>
      <point x="651" y="721" type="curve" smooth="yes"/>
      <point x="766" y="721"/>
      <point x="823" y="711"/>
    </contour>
  </outline>
</glyph>
<glyph name="komidzje-cy.sc" format="1">
  <advance width="1380"/>
  <outline>
    <contour>
      <point x="551" y="691" type="curve" smooth="yes"/>
      <point x="425" y="691" type="line"/>
      <point x="425" y="630" type="line"/>
      <point x="576" y="630" type="line" smooth="yes"/>
      <point x="859" y="630"/>
      <point x="981" y="521"/>
      <point x="981" y="327" type="curve" smooth="yes"/>
      <point x="981" y="245"/>
      <point x="921" y="88"/>
      <point x="787" y="86" type="curve"/>
      <point x="787" y="0" type="line"/>
      <point x="1162" y="0" type="line"/>
      <point x="1161" y="17"/>
      <point x="1167" y="-194"/>
      <point x="1169" y="-290" type="curve"/>
      <point x="1281" y="-290" type="line"/>
      <point x="1332" y="153"/>
      <point x="1319" y="-76"/>
      <point x="1345" y="80" type="curve"/>
      <point x="1053" y="80" type="line"/>
      <point x="1102" y="105"/>
      <point x="1174" y="220"/>
      <point x="1174" y="322" type="curve" smooth="yes"/>
      <point x="1174" y="508"/>
      <point x="1001" y="686"/>
      <point x="737" y="682" type="curve"/>
      <point x="908" y="709"/>
      <point x="1077" y="816"/>
      <point x="1077" y="1016" type="curve" smooth="yes"/>
      <point x="1077" y="1216"/>
      <point x="900" y="1306"/>
      <point x="575" y="1306" type="curve" smooth="yes"/>
      <point x="418" y="1306"/>
      <point x="266" y="1254"/>
      <point x="178" y="1246" type="curve"/>
      <point x="196" y="1008" type="line"/>
      <point x="300" y="1008" type="line"/>
      <point x="333" y="1154" type="line"/>
      <point x="370" y="1206"/>
      <point x="474" y="1236"/>
      <point x="604" y="1236" type="curve" smooth="yes"/>
      <point x="792" y="1236"/>
      <point x="905" y="1168"/>
      <point x="907" y="988" type="curve"/>
      <point x="907" y="806"/>
      <point x="730" y="691"/>
    </contour>
  </outline>
</glyph>
<glyph name="komilje-cy.sc" format="1">
  <advance width="2096"/>
  <outline>
    <contour>
      <point x="618" y="-144" type="move" name="mark0"/>
    </contour>
    <contour>
      <point x="1880" y="286" type="curve" smooth="yes"/>
      <point x="1880" y="615" type="line"/>
      <point x="2036" y="630" type="line"/>
      <point x="2036" y="697" type="line"/>
      <point x="1551" y="697" type="line"/>
      <point x="1551" y="630" type="line"/>
      <point x="1720" y="615" type="line"/>
      <point x="1720" y="330" type="line" smooth="yes"/>
      <point x="1720" y="140"/>
      <point x="1656" y="54"/>
      <point x="1460" y="54" type="curve" smooth="yes"/>
      <point x="1291" y="54"/>
      <point x="1237" y="139"/>
      <point x="1237" y="335" type="curve" smooth="yes"/>
      <point x="1237" y="1228" type="line"/>
      <point x="1434" y="1241" type="line"/>
      <point x="1434" y="1292" type="line"/>
      <point x="285" y="1292" type="line"/>
      <point x="285" y="1241" type="line"/>
      <point x="516" y="1228" type="line"/>
      <point x="516" y="1046" type="line" smooth="yes"/>
      <point x="516" y="587"/>
      <point x="452" y="307"/>
      <point x="343" y="171" type="curve"/>
      <point x="313" y="136"/>
      <point x="273" y="109"/>
      <point x="219" y="109" type="curve" smooth="yes"/>
      <point x="133" y="109"/>
      <point x="86" y="113"/>
      <point x="65" y="117" type="curve"/>
      <point x="77" y="0" type="line"/>
      <point x="101" y="-2"/>
      <point x="151" y="-9"/>
      <point x="216" y="-9" type="curve" smooth="yes"/>
      <point x="310" y="-9"/>
      <point x="384" y="24"/>
      <point x="446" y="103" type="curve" smooth="yes"/>
      <point x="568" y="265"/>
      <point x="626" y="588"/>
      <point x="626" y="1033" type="curve" smooth="yes"/>
      <point x="626" y="1228" type="line"/>
      <point x="1077" y="1228" type="line"/>
      <point x="1077" y="292" type="line" smooth="yes"/>
      <point x="1077" y="104"/>
      <point x="1205" y="-14"/>
      <point x="1457" y="-14" type="curve" smooth="yes"/>
      <point x="1733" y="-14"/>
      <point x="1880" y="111"/>
    </contour>
  </outline>
</glyph>
<glyph name="kominje-cy.sc" format="1">
  <advance width="2237"/>
  <outline>
    <contour>
      <point x="1378" y="335" type="curve" smooth="yes"/>
      <point x="1378" y="1226" type="line"/>
      <point x="1573" y="1245" type="line"/>
      <point x="1573" y="1292" type="line"/>
      <point x="1024" y="1292" type="line"/>
      <point x="1024" y="1245" type="line"/>
      <point x="1218" y="1225" type="line"/>
      <point x="1218" y="699" type="line"/>
      <point x="467" y="699" type="line"/>
      <point x="467" y="1227" type="line"/>
      <point x="652" y="1241" type="line"/>
      <point x="652" y="1292" type="line"/>
      <point x="137" y="1292" type="line"/>
      <point x="137" y="1241" type="line"/>
      <point x="310" y="1226" type="line"/>
      <point x="310" y="67" type="line"/>
      <point x="130" y="53" type="line"/>
      <point x="130" y="0" type="line"/>
      <point x="653" y="0" type="line"/>
      <point x="653" y="53" type="line"/>
      <point x="467" y="67" type="line"/>
      <point x="467" y="635" type="line"/>
      <point x="1218" y="635" type="line"/>
      <point x="1220" y="292" type="line" smooth="yes"/>
      <point x="1223" y="93"/>
      <point x="1355" y="-14"/>
      <point x="1599" y="-14" type="curve" smooth="yes"/>
      <point x="1875" y="-14"/>
      <point x="2022" y="111"/>
      <point x="2022" y="286" type="curve" smooth="yes"/>
      <point x="2022" y="615" type="line"/>
      <point x="2179" y="631" type="line"/>
      <point x="2179" y="697" type="line"/>
      <point x="1695" y="697" type="line"/>
      <point x="1695" y="631" type="line"/>
      <point x="1862" y="615" type="line"/>
      <point x="1862" y="330" type="line" smooth="yes"/>
      <point x="1862" y="140"/>
      <point x="1798" y="54"/>
      <point x="1605" y="54" type="curve" smooth="yes"/>
      <point x="1431" y="54"/>
      <point x="1377" y="145"/>
    </contour>
  </outline>
</glyph>
<glyph name="komisje-cy.sc" format="1">
  <advance width="1553"/>
  <outline>
    <contour>
      <point x="803" y="-144" type="move" name="mark0"/>
    </contour>
    <contour>
      <point x="1336" y="286" type="curve" smooth="yes"/>
      <point x="1336" y="615" type="line"/>
      <point x="1493" y="631" type="line"/>
      <point x="1493" y="697" type="line"/>
      <point x="1008" y="697" type="line"/>
      <point x="1008" y="631" type="line"/>
      <point x="1176" y="615" type="line"/>
      <point x="1176" y="330" type="line" smooth="yes"/>
      <point x="1176" y="140"/>
      <point x="1102" y="55"/>
      <point x="873" y="54" type="curve" smooth="yes"/>
      <point x="480" y="54"/>
      <point x="274" y="382"/>
      <point x="274" y="668" type="curve" smooth="yes"/>
      <point x="274" y="1039"/>
      <point x="520" y="1236"/>
      <point x="851" y="1236" type="curve" smooth="yes"/>
      <point x="1053" y="1236"/>
      <point x="1163" y="1204"/>
      <point x="1189" y="1184" type="curve"/>
      <point x="1236" y="984" type="line"/>
      <point x="1333" y="984" type="line"/>
      <point x="1352" y="1252" type="line"/>
      <point x="1285" y="1264"/>
      <point x="1090" y="1306"/>
      <point x="872" y="1306" type="curve" smooth="yes"/>
      <point x="449" y="1306"/>
      <point x="93" y="1048"/>
      <point x="93" y="629" type="curve" smooth="yes"/>
      <point x="93" y="291"/>
      <point x="400" y="-14"/>
      <point x="869" y="-14" type="curve" smooth="yes"/>
      <point x="1171" y="-14"/>
      <point x="1336" y="110"/>
    </contour>
  </outline>
</glyph>
<glyph name="komitje-cy.sc" format="1">
  <advance width="1681"/>
  <outline>
    <contour>
      <point x="763" y="-144" type="move" name="mark0"/>
    </contour>
    <contour>
      <point x="827" y="335" type="curve" smooth="yes"/>
      <point x="827" y="1237" type="line"/>
      <point x="1242" y="1237" type="line"/>
      <point x="1299" y="893" type="line"/>
      <point x="1407" y="893" type="line"/>
      <point x="1385" y="1292" type="line"/>
      <point x="123" y="1292" type="line"/>
      <point x="88" y="893" type="line"/>
      <point x="198" y="893" type="line"/>
      <point x="265" y="1237" type="line"/>
      <point x="665" y="1237" type="line"/>
      <point x="665" y="292" type="line" smooth="yes"/>
      <point x="665" y="106"/>
      <point x="795" y="-14"/>
      <point x="1047" y="-14" type="curve" smooth="yes"/>
      <point x="1316" y="-14"/>
      <point x="1470" y="108"/>
      <point x="1470" y="286" type="curve" smooth="yes"/>
      <point x="1470" y="615" type="line"/>
      <point x="1622" y="631" type="line"/>
      <point x="1622" y="697" type="line"/>
      <point x="1141" y="697" type="line"/>
      <point x="1141" y="631" type="line"/>
      <point x="1310" y="615" type="line"/>
      <point x="1310" y="330" type="line" smooth="yes"/>
      <point x="1310" y="143"/>
      <point x="1247" y="54"/>
      <point x="1051" y="54" type="curve" smooth="yes"/>
      <point x="875" y="54"/>
      <point x="827" y="145"/>
    </contour>
  </outline>
</glyph>
<glyph name="komizje-cy.sc" format="1">
  <advance width="1994"/>
  <outline>
    <contour>
      <point x="1778" y="286" type="curve" smooth="yes"/>
      <point x="1778" y="615" type="line"/>
      <point x="1935" y="631" type="line"/>
      <point x="1935" y="694" type="line"/>
      <point x="1454" y="694" type="line"/>
      <point x="1454" y="631" type="line"/>
      <point x="1621" y="614" type="line"/>
      <point x="1621" y="330" type="line" smooth="yes"/>
      <point x="1621" y="143"/>
      <point x="1560" y="54"/>
      <point x="1361" y="54" type="curve" smooth="yes"/>
      <point x="1208" y="54"/>
      <point x="1136" y="119"/>
      <point x="1136" y="335" type="curve" smooth="yes"/>
      <point x="1136" y="543"/>
      <point x="1004" y="684"/>
      <point x="738" y="682" type="curve"/>
      <point x="905" y="712"/>
      <point x="1077" y="816"/>
      <point x="1077" y="1016" type="curve" smooth="yes"/>
      <point x="1077" y="1216"/>
      <point x="900" y="1306"/>
      <point x="575" y="1306" type="curve" smooth="yes"/>
      <point x="418" y="1306"/>
      <point x="266" y="1254"/>
      <point x="178" y="1246" type="curve"/>
      <point x="196" y="1008" type="line"/>
      <point x="300" y="1008" type="line"/>
      <point x="333" y="1154" type="line"/>
      <point x="370" y="1206"/>
      <point x="474" y="1236"/>
      <point x="604" y="1236" type="curve" smooth="yes"/>
      <point x="792" y="1236"/>
      <point x="905" y="1168"/>
      <point x="907" y="988" type="curve"/>
      <point x="907" y="806"/>
      <point x="730" y="691"/>
      <point x="553" y="691" type="curve" smooth="yes"/>
      <point x="425" y="691" type="line"/>
      <point x="425" y="630" type="line"/>
      <point x="578" y="630" type="line" smooth="yes"/>
      <point x="878" y="630"/>
      <point x="981" y="500"/>
      <point x="981" y="292" type="curve" smooth="yes"/>
      <point x="981" y="116"/>
      <point x="1101" y="-14"/>
      <point x="1358" y="-14" type="curve" smooth="yes"/>
      <point x="1629" y="-14"/>
      <point x="1778" y="107"/>
    </contour>
  </outline>
</glyph>
<glyph name="lje-cy.sc" format="1">
  <advance width="2123"/>
  <outline>
    <contour>
      <point x="669" y="-144" type="move" name="mark0"/>
    </contour>
    <contour>
      <point x="1230" y="711" type="curve"/>
      <point x="1230" y="1227" type="line"/>
      <point x="1427" y="1241" type="line"/>
      <point x="1427" y="1292" type="line"/>
      <point x="322" y="1292" type="line"/>
      <point x="322" y="1241" type="line"/>
      <point x="514" y="1226" type="line"/>
      <point x="514" y="1047" type="line" smooth="yes"/>
      <point x="514" y="591"/>
      <point x="452" y="304"/>
      <point x="340" y="167" type="curve"/>
      <point x="308" y="126"/>
      <point x="265" y="108"/>
      <point x="219" y="108" type="curve" smooth="yes"/>
      <point x="130" y="108"/>
      <point x="86" y="112"/>
      <point x="65" y="117" type="curve"/>
      <point x="74" y="0" type="line"/>
      <point x="98" y="-2"/>
      <point x="150" y="-8"/>
      <point x="215" y="-8" type="curve" smooth="yes"/>
      <point x="315" y="-8"/>
      <point x="384" y="24"/>
      <point x="443" y="100" type="curve" smooth="yes"/>
      <point x="565" y="265"/>
      <point x="626" y="579"/>
      <point x="626" y="1033" type="curve" smooth="yes"/>
      <point x="626" y="1228" type="line"/>
      <point x="1075" y="1228" type="line"/>
      <point x="1072" y="69" type="line"/>
      <point x="859" y="53" type="line"/>
      <point x="859" y="0" type="line"/>
      <point x="1155" y="0" type="line" smooth="yes"/>
      <point x="1245" y="0"/>
      <point x="1429" y="-14"/>
      <point x="1479" y="-14" type="curve" smooth="yes"/>
      <point x="1803" y="-14"/>
      <point x="2035" y="114"/>
      <point x="2035" y="378" type="curve" smooth="yes"/>
      <point x="2035" y="600"/>
      <point x="1848" y="732"/>
      <point x="1507" y="732" type="curve" smooth="yes"/>
      <point x="1399" y="732"/>
      <point x="1278" y="720"/>
    </contour>
    <contour>
      <point x="1230" y="61" type="curve"/>
      <point x="1230" y="640" type="line"/>
      <point x="1269" y="648"/>
      <point x="1372" y="654"/>
      <point x="1465" y="654" type="curve" smooth="yes"/>
      <point x="1713" y="654"/>
      <point x="1864" y="560"/>
      <point x="1864" y="370" type="curve" smooth="yes"/>
      <point x="1864" y="143"/>
      <point x="1713" y="45"/>
      <point x="1468" y="45" type="curve" smooth="yes"/>
      <point x="1353" y="45"/>
      <point x="1297" y="51"/>
    </contour>
  </outline>
</glyph>
<glyph name="nje-cy.sc" format="1">
  <advance width="2265"/>
  <outline>
    <contour>
      <point x="878" y="-144" type="move" name="mark0"/>
    </contour>
    <contour>
      <point x="1650" y="733" type="curve" smooth="yes"/>
      <point x="1376" y="733" type="line"/>
      <point x="1376" y="1225" type="line"/>
      <point x="1563" y="1245" type="line"/>
      <point x="1563" y="1292" type="line"/>
      <point x="1036" y="1292" type="line"/>
      <point x="1036" y="1245" type="line"/>
      <point x="1216" y="1226" type="line"/>
      <point x="1216" y="701" type="line"/>
      <point x="467" y="701" type="line"/>
      <point x="467" y="1227" type="line"/>
      <point x="649" y="1241" type="line"/>
      <point x="649" y="1292" type="line"/>
      <point x="137" y="1292" type="line"/>
      <point x="137" y="1241" type="line"/>
      <point x="310" y="1226" type="line"/>
      <point x="310" y="67" type="line"/>
      <point x="123" y="53" type="line"/>
      <point x="123" y="0" type="line"/>
      <point x="668" y="0" type="line"/>
      <point x="668" y="52" type="line"/>
      <point x="467" y="64" type="line"/>
      <point x="467" y="634" type="line"/>
      <point x="1216" y="634" type="line"/>
      <point x="1216" y="64" type="line"/>
      <point x="1045" y="52" type="line"/>
      <point x="1045" y="0" type="line"/>
      <point x="1256" y="0" type="line" smooth="yes"/>
      <point x="1341" y="0"/>
      <point x="1550" y="-20"/>
      <point x="1631" y="-20" type="curve" smooth="yes"/>
      <point x="1958" y="-20"/>
      <point x="2179" y="94"/>
      <point x="2179" y="380" type="curve" smooth="yes"/>
      <point x="2179" y="602"/>
      <point x="1993" y="733"/>
    </contour>
    <contour>
      <point x="1376" y="77" type="curve"/>
      <point x="1376" y="652" type="line"/>
      <point x="1609" y="652" type="line" smooth="yes"/>
      <point x="1856" y="652"/>
      <point x="2010" y="548"/>
      <point x="2010" y="371" type="curve" smooth="yes"/>
      <point x="2010" y="141"/>
      <point x="1855" y="52"/>
      <point x="1611" y="52" type="curve" smooth="yes"/>
      <point x="1508" y="52"/>
      <point x="1436" y="72"/>
    </contour>
  </outline>
</glyph>
<glyph name="obarred-cy.sc" format="1">
  <advance width="1506"/>
  <outline>
    <contour>
      <point x="776" y="1263" type="move" name="top"/>
    </contour>
    <contour>
      <point x="742" y="-144" type="move" name="mark0"/>
    </contour>
    <contour>
      <point x="774" y="1306" type="curve" smooth="yes"/>
      <point x="388" y="1306"/>
      <point x="77" y="1046"/>
      <point x="77" y="633" type="curve" smooth="yes"/>
      <point x="77" y="247"/>
      <point x="316" y="-28"/>
      <point x="737" y="-20" type="curve" smooth="yes"/>
      <point x="1120" y="-12"/>
      <point x="1429" y="243"/>
      <point x="1429" y="653" type="curve" smooth="yes"/>
      <point x="1429" y="1046"/>
      <point x="1194" y="1307"/>
    </contour>
    <contour>
      <point x="254" y="616" type="curve"/>
      <point x="1247" y="616" type="line"/>
      <point x="1229" y="238"/>
      <point x="1030" y="44"/>
      <point x="748" y="44" type="curve" smooth="yes"/>
      <point x="442" y="44"/>
      <point x="266" y="312"/>
    </contour>
    <contour>
      <point x="1247" y="683" type="curve"/>
      <point x="254" y="683" type="line"/>
      <point x="273" y="1042"/>
      <point x="464" y="1241"/>
      <point x="755" y="1241" type="curve" smooth="yes"/>
      <point x="1061" y="1241"/>
      <point x="1233" y="979"/>
    </contour>
  </outline>
</glyph>
<glyph name="pe-cy.sc" format="1">
  <advance width="1679"/>
  <outline>
    <contour>
      <point x="1193" y="0" type="move" name="bottomright"/>
    </contour>
    <contour>
      <point x="126" y="1292" type="line"/>
      <point x="126" y="1241" type="line"/>
      <point x="312" y="1227" type="line"/>
      <point x="312" y="67" type="line"/>
      <point x="137" y="53" type="line"/>
      <point x="137" y="0" type="line"/>
      <point x="678" y="0" type="line"/>
      <point x="678" y="53" type="line"/>
      <point x="469" y="67" type="line"/>
      <point x="469" y="1218" type="line"/>
      <point x="1212" y="1218" type="line"/>
      <point x="1212" y="70" type="line"/>
      <point x="1027" y="53" type="line"/>
      <point x="1027" y="0" type="line"/>
      <point x="1574" y="0" type="line"/>
      <point x="1574" y="53" type="line"/>
      <point x="1370" y="69" type="line"/>
      <point x="1370" y="1223" type="line"/>
      <point x="1556" y="1243" type="line"/>
      <point x="1556" y="1292" type="line"/>
    </contour>
  </outline>
</glyph>
<glyph name="pedescender-cy.sc" format="1">
  <advance width="1713"/>
  <outline>
    <contour>
      <point x="1618" y="69" type="curve"/>
      <point x="1370" y="69" type="line"/>
      <point x="1370" y="1223" type="line"/>
      <point x="1556" y="1243" type="line"/>
      <point x="1556" y="1292" type="line"/>
      <point x="126" y="1292" type="line"/>
      <point x="126" y="1241" type="line"/>
      <point x="312" y="1227" type="line"/>
      <point x="312" y="67" type="line"/>
      <point x="137" y="53" type="line"/>
      <point x="137" y="0" type="line"/>
      <point x="678" y="0" type="line"/>
      <point x="678" y="53" type="line"/>
      <point x="469" y="67" type="line"/>
      <point x="469" y="1218" type="line"/>
      <point x="1212" y="1218" type="line"/>
      <point x="1212" y="70" type="line"/>
      <point x="1027" y="53" type="line"/>
      <point x="1027" y="0" type="line"/>
      <point x="1437" y="0" type="line"/>
      <point x="1439" y="0"/>
      <point x="1454" y="-270"/>
      <point x="1454" y="-293" type="curve"/>
      <point x="1563" y="-293" type="line"/>
      <point x="1565" y="-299"/>
      <point x="1618" y="127"/>
    </contour>
  </outline>
</glyph>
<glyph name="pemiddlehook-cy.sc" format="1">
  <advance width="2254"/>
  <outline>
    <contour>
      <point x="870" y="-144" type="move" name="mark0"/>
    </contour>
    <contour>
      <point x="1370" y="685" type="curve"/>
      <point x="1370" y="1223" type="line"/>
      <point x="1556" y="1243" type="line"/>
      <point x="1556" y="1292" type="line"/>
      <point x="126" y="1292" type="line"/>
      <point x="126" y="1241" type="line"/>
      <point x="312" y="1227" type="line"/>
      <point x="312" y="67" type="line"/>
      <point x="137" y="53" type="line"/>
      <point x="137" y="0" type="line"/>
      <point x="678" y="0" type="line"/>
      <point x="678" y="53" type="line"/>
      <point x="469" y="67" type="line"/>
      <point x="469" y="1218" type="line"/>
      <point x="1212" y="1218" type="line"/>
      <point x="1212" y="70" type="line"/>
      <point x="1027" y="53" type="line"/>
      <point x="1027" y="0" type="line"/>
      <point x="1574" y="0" type="line"/>
      <point x="1574" y="53" type="line"/>
      <point x="1370" y="69" type="line"/>
      <point x="1370" y="627" type="line"/>
      <point x="1447" y="648"/>
      <point x="1535" y="660"/>
      <point x="1656" y="660" type="curve" smooth="yes"/>
      <point x="1904" y="660"/>
      <point x="1982" y="540"/>
      <point x="1982" y="310" type="curve" smooth="yes"/>
      <point x="1982" y="-64"/>
      <point x="1894" y="-260"/>
      <point x="1662" y="-260" type="curve" smooth="yes"/>
      <point x="1634" y="-260"/>
      <point x="1592" y="-266"/>
      <point x="1573" y="-261" type="curve"/>
      <point x="1574" y="-331" type="line"/>
      <point x="1599" y="-340"/>
      <point x="1657" y="-337"/>
      <point x="1683" y="-337" type="curve" smooth="yes"/>
      <point x="1994" y="-337"/>
      <point x="2146" y="-34"/>
      <point x="2146" y="302" type="curve" smooth="yes"/>
      <point x="2146" y="510"/>
      <point x="2084" y="737"/>
      <point x="1695" y="737" type="curve" smooth="yes"/>
      <point x="1569" y="737"/>
      <point x="1429" y="711"/>
    </contour>
  </outline>
</glyph>
<glyph name="reversedze-cy.sc" format="1">
  <advance width="1234"/>
  <outline>
    <contour>
      <point x="1082" y="46" type="curve"/>
      <point x="1140" y="249" type="line"/>
      <point x="1042" y="267" type="line"/>
      <point x="957" y="120" type="line"/>
      <point x="903" y="80"/>
      <point x="790" y="50"/>
      <point x="678" y="50" type="curve" smooth="yes"/>
      <point x="454" y="50"/>
      <point x="319" y="140"/>
      <point x="319" y="338" type="curve" smooth="yes"/>
      <point x="319" y="469"/>
      <point x="393" y="640"/>
      <point x="700" y="640" type="curve"/>
      <point x="854" y="634" type="line"/>
      <point x="854" y="714" type="line"/>
      <point x="727" y="701" type="line"/>
      <point x="549" y="701"/>
      <point x="354" y="759"/>
      <point x="354" y="951" type="curve" smooth="yes"/>
      <point x="354" y="1131"/>
      <point x="472" y="1239"/>
      <point x="671" y="1239" type="curve" smooth="yes"/>
      <point x="806" y="1239"/>
      <point x="907" y="1204"/>
      <point x="941" y="1184" type="curve"/>
      <point x="977" y="999" type="line"/>
      <point x="1080" y="999" type="line"/>
      <point x="1097" y="1251" type="line"/>
      <point x="1009" y="1272"/>
      <point x="820" y="1306"/>
      <point x="693" y="1306" type="curve" smooth="yes"/>
      <point x="375" y="1306"/>
      <point x="182" y="1186"/>
      <point x="182" y="974" type="curve" smooth="yes"/>
      <point x="182" y="779"/>
      <point x="372" y="697"/>
      <point x="541" y="672" type="curve"/>
      <point x="282" y="662"/>
      <point x="133" y="518"/>
      <point x="133" y="323" type="curve" smooth="yes"/>
      <point x="133" y="111"/>
      <point x="307" y="-20"/>
      <point x="671" y="-20" type="curve" smooth="yes"/>
      <point x="857" y="-20"/>
      <point x="975" y="43"/>
    </contour>
  </outline>
</glyph>
<glyph name="semisoftsign-cy.sc" format="1">
  <advance width="1362"/>
  <outline>
    <contour>
      <point x="467" y="792" type="curve"/>
      <point x="467" y="958" type="line"/>
      <point x="729" y="958" type="line"/>
      <point x="729" y="1025" type="line"/>
      <point x="467" y="1025" type="line"/>
      <point x="467" y="1226" type="line"/>
      <point x="666" y="1245" type="line"/>
      <point x="666" y="1292" type="line"/>
      <point x="133" y="1292" type="line"/>
      <point x="133" y="1245" type="line"/>
      <point x="310" y="1225" type="line"/>
      <point x="310" y="1025" type="line"/>
      <point x="92" y="1025" type="line"/>
      <point x="92" y="958" type="line"/>
      <point x="310" y="958" type="line"/>
      <point x="310" y="67" type="line"/>
      <point x="128" y="53" type="line"/>
      <point x="128" y="0" type="line"/>
      <point x="399" y="0" type="line" smooth="yes"/>
      <point x="481" y="0"/>
      <point x="672" y="-14"/>
      <point x="717" y="-14" type="curve" smooth="yes"/>
      <point x="1047" y="-14"/>
      <point x="1274" y="125"/>
      <point x="1274" y="408" type="curve" smooth="yes"/>
      <point x="1274" y="651"/>
      <point x="1084" y="791"/>
      <point x="748" y="791" type="curve"/>
      <point x="653" y="791"/>
      <point x="563" y="791"/>
    </contour>
    <contour>
      <point x="467" y="66" type="curve"/>
      <point x="467" y="718" type="line"/>
      <point x="550" y="717"/>
      <point x="625" y="715"/>
      <point x="704" y="715" type="curve" smooth="yes"/>
      <point x="950" y="715"/>
      <point x="1103" y="614"/>
      <point x="1103" y="402" type="curve" smooth="yes"/>
      <point x="1103" y="149"/>
      <point x="950" y="50"/>
      <point x="707" y="50" type="curve" smooth="yes"/>
      <point x="582" y="50"/>
      <point x="531" y="58"/>
    </contour>
  </outline>
</glyph>
<glyph name="sha-cy.sc" format="1">
  <advance width="2270"/>
  <outline>
    <contour>
      <point x="817" y="-144" type="move" name="mark0"/>
    </contour>
    <contour>
      <point x="130" y="1292" type="line"/>
      <point x="130" y="1241" type="line"/>
      <point x="312" y="1226" type="line"/>
      <point x="312" y="69" type="line"/>
      <point x="102" y="53" type="line"/>
      <point x="102" y="0" type="line"/>
      <point x="2165" y="0" type="line"/>
      <point x="2165" y="53" type="line"/>
      <point x="1958" y="70" type="line"/>
      <point x="1958" y="1226" type="line"/>
      <point x="2137" y="1241" type="line"/>
      <point x="2137" y="1292" type="line"/>
      <point x="1639" y="1292" type="line"/>
      <point x="1639" y="1241" type="line"/>
      <point x="1800" y="1227" type="line"/>
      <point x="1800" y="67" type="line"/>
      <point x="1215" y="67" type="line"/>
      <point x="1215" y="1226" type="line"/>
      <point x="1385" y="1241" type="line"/>
      <point x="1385" y="1292" type="line"/>
      <point x="901" y="1292" type="line"/>
      <point x="901" y="1241" type="line"/>
      <point x="1064" y="1226" type="line"/>
      <point x="1064" y="67" type="line"/>
      <point x="467" y="67" type="line"/>
      <point x="467" y="1223" type="line"/>
      <point x="669" y="1241" type="line"/>
      <point x="669" y="1292" type="line"/>
    </contour>
  </outline>
</glyph>
<glyph name="shcha-cy.sc" format="1">
  <advance width="2286"/>
  <outline>
    <contour>
      <point x="2212" y="69" type="curve"/>
      <point x="1958" y="69" type="line"/>
      <point x="1958" y="1226" type="line"/>
      <point x="2137" y="1241" type="line"/>
      <point x="2137" y="1292" type="line"/>
      <point x="1639" y="1292" type="line"/>
      <point x="1639" y="1241" type="line"/>
      <point x="1800" y="1227" type="line"/>
      <point x="1800" y="67" type="line"/>
      <point x="1215" y="67" type="line"/>
      <point x="1215" y="1226" type="line"/>
      <point x="1385" y="1241" type="line"/>
      <point x="1385" y="1292" type="line"/>
      <point x="901" y="1292" type="line"/>
      <point x="901" y="1241" type="line"/>
      <point x="1064" y="1226" type="line"/>
      <point x="1064" y="67" type="line"/>
      <point x="467" y="67" type="line"/>
      <point x="467" y="1226" type="line"/>
      <point x="669" y="1241" type="line"/>
      <point x="669" y="1292" type="line"/>
      <point x="130" y="1292" type="line"/>
      <point x="130" y="1241" type="line"/>
      <point x="312" y="1226" type="line"/>
      <point x="312" y="69" type="line"/>
      <point x="102" y="53" type="line"/>
      <point x="102" y="0" type="line"/>
      <point x="2031" y="0" type="line"/>
      <point x="2033" y="5"/>
      <point x="2046" y="-277"/>
      <point x="2048" y="-293" type="curve"/>
      <point x="2157" y="-293" type="line"/>
      <point x="2178" y="-103"/>
      <point x="2196" y="-40"/>
    </contour>
  </outline>
</glyph>
<glyph name="shha-cy.sc" format="1">
  <advance width="1422"/>
  <outline>
    <contour>
      <point x="44" y="1124" type="move" name="topleft"/>
    </contour>
    <contour>
      <point x="705" y="476" type="move" name="center"/>
    </contour>
    <contour>
      <point x="770" y="-168" type="move" name="bottom"/>
    </contour>
    <contour>
      <point x="458" y="691" type="curve"/>
      <point x="458" y="1223" type="line"/>
      <point x="676" y="1239" type="line"/>
      <point x="676" y="1292" type="line"/>
      <point x="105" y="1292" type="line"/>
      <point x="105" y="1238" type="line"/>
      <point x="301" y="1223" type="line"/>
      <point x="301" y="68" type="line"/>
      <point x="107" y="51" type="line"/>
      <point x="107" y="0" type="line"/>
      <point x="654" y="0" type="line"/>
      <point x="654" y="51" type="line"/>
      <point x="458" y="66" type="line"/>
      <point x="458" y="634" type="line"/>
      <point x="519" y="661"/>
      <point x="686" y="691"/>
      <point x="797" y="691" type="curve" smooth="yes"/>
      <point x="1079" y="691"/>
      <point x="1110" y="640"/>
      <point x="1110" y="323" type="curve" smooth="yes"/>
      <point x="1110" y="69" type="line"/>
      <point x="917" y="51" type="line"/>
      <point x="917" y="0" type="line"/>
      <point x="1403" y="0" type="line"/>
      <point x="1403" y="51" type="line"/>
      <point x="1270" y="68" type="line"/>
      <point x="1270" y="365" type="line" smooth="yes"/>
      <point x="1270" y="616"/>
      <point x="1195" y="765"/>
      <point x="881" y="765" type="curve" smooth="yes"/>
      <point x="748" y="765"/>
      <point x="564" y="736"/>
    </contour>
  </outline>
</glyph>
<glyph name="shhadescender-cy.sc" format="1">
  <advance width="1584"/>
  <outline>
    <contour>
      <point x="38" y="1292" type="move" name="topleft"/>
    </contour>
    <contour>
      <point x="698" y="646" type="move" name="center"/>
    </contour>
    <contour>
      <point x="763" y="0" type="move" name="bottom"/>
    </contour>
    <contour>
      <point x="100" y="0" type="line"/>
      <point x="647" y="0" type="line"/>
      <point x="647" y="50" type="line"/>
      <point x="451" y="68" type="line"/>
      <point x="451" y="635" type="line"/>
      <point x="512" y="661"/>
      <point x="672" y="693"/>
      <point x="790" y="693" type="curve" smooth="yes"/>
      <point x="1072" y="693"/>
      <point x="1103" y="643"/>
      <point x="1103" y="325" type="curve" smooth="yes"/>
      <point x="1103" y="71" type="line"/>
      <point x="910" y="53" type="line"/>
      <point x="910" y="0" type="line"/>
      <point x="1329" y="0" type="line"/>
      <point x="1331" y="0"/>
      <point x="1346" y="-273"/>
      <point x="1346" y="-293" type="curve"/>
      <point x="1455" y="-293" type="line"/>
      <point x="1457" y="-299"/>
      <point x="1510" y="129"/>
      <point x="1510" y="69" type="curve"/>
      <point x="1263" y="70" type="line"/>
      <point x="1263" y="365" type="line"/>
      <point x="1263" y="670"/>
      <point x="1148" y="765"/>
      <point x="875" y="765" type="curve" smooth="yes"/>
      <point x="750" y="765"/>
      <point x="560" y="740"/>
      <point x="451" y="693" type="curve"/>
      <point x="451" y="1226" type="line"/>
      <point x="669" y="1239" type="line"/>
      <point x="669" y="1292" type="line"/>
      <point x="98" y="1292" type="line"/>
      <point x="98" y="1241" type="line"/>
      <point x="294" y="1226" type="line"/>
      <point x="294" y="67" type="line"/>
      <point x="100" y="50" type="line"/>
    </contour>
  </outline>
</glyph>
<glyph name="tedescender-cy.sc" format="1">
  <advance width="1513"/>
  <outline>
    <contour>
      <point x="1185" y="69" type="curve"/>
      <point x="838" y="69" type="line"/>
      <point x="838" y="1239" type="line"/>
      <point x="1253" y="1229" type="line"/>
      <point x="1308" y="895" type="line"/>
      <point x="1415" y="895" type="line"/>
      <point x="1392" y="1292" type="line"/>
      <point x="121" y="1292" type="line"/>
      <point x="85" y="895" type="line"/>
      <point x="196" y="895" type="line"/>
      <point x="261" y="1229" type="line"/>
      <point x="669" y="1239" type="line"/>
      <point x="669" y="69" type="line"/>
      <point x="394" y="53" type="line"/>
      <point x="394" y="0" type="line"/>
      <point x="1006" y="0" type="line"/>
      <point x="1011" y="-114"/>
      <point x="1014" y="-168"/>
      <point x="1022" y="-293" type="curve"/>
      <point x="1128" y="-293" type="line"/>
      <point x="1149" y="-114"/>
      <point x="1164" y="-84"/>
    </contour>
  </outline>
</glyph>
<glyph name="tetse-cy.sc" format="1">
  <advance width="1993"/>
  <outline>
    <contour>
      <point x="1938" y="69" type="curve"/>
      <point x="1662" y="69" type="line"/>
      <point x="1662" y="1227" type="line"/>
      <point x="1837" y="1241" type="line"/>
      <point x="1837" y="1292" type="line"/>
      <point x="1337" y="1292" type="line"/>
      <point x="1337" y="1241" type="line"/>
      <point x="1502" y="1227" type="line"/>
      <point x="1502" y="74" type="line"/>
      <point x="695" y="74" type="line"/>
      <point x="695" y="1232" type="line"/>
      <point x="976" y="1227" type="line"/>
      <point x="1031" y="908" type="line"/>
      <point x="1141" y="908" type="line"/>
      <point x="1121" y="1292" type="line"/>
      <point x="111" y="1292" type="line"/>
      <point x="87" y="908" type="line"/>
      <point x="200" y="908" type="line"/>
      <point x="255" y="1227" type="line"/>
      <point x="537" y="1230" type="line"/>
      <point x="537" y="67" type="line"/>
      <point x="372" y="53" type="line"/>
      <point x="372" y="0" type="line"/>
      <point x="1757" y="0" type="line"/>
      <point x="1757" y="5"/>
      <point x="1771" y="-256"/>
      <point x="1771" y="-284" type="curve"/>
      <point x="1880" y="-284" type="line"/>
      <point x="1899" y="-111"/>
      <point x="1917" y="-58"/>
    </contour>
  </outline>
</glyph>
<glyph name="tse-cy.sc" format="1">
  <advance width="1675"/>
  <outline>
    <contour>
      <point x="1602" y="69" type="curve"/>
      <point x="1353" y="69" type="line"/>
      <point x="1353" y="1226" type="line"/>
      <point x="1530" y="1241" type="line"/>
      <point x="1530" y="1292" type="line"/>
      <point x="1030" y="1292" type="line"/>
      <point x="1030" y="1241" type="line"/>
      <point x="1193" y="1226" type="line"/>
      <point x="1193" y="74" type="line"/>
      <point x="467" y="74" type="line"/>
      <point x="467" y="1227" type="line"/>
      <point x="683" y="1241" type="line"/>
      <point x="683" y="1292" type="line"/>
      <point x="128" y="1292" type="line"/>
      <point x="128" y="1241" type="line"/>
      <point x="312" y="1226" type="line"/>
      <point x="312" y="72" type="line"/>
      <point x="105" y="52" type="line"/>
      <point x="105" y="0" type="line"/>
      <point x="1421" y="0" type="line"/>
      <point x="1423" y="0"/>
      <point x="1438" y="-279"/>
      <point x="1438" y="-293" type="curve"/>
      <point x="1547" y="-293" type="line"/>
      <point x="1548" y="-302"/>
      <point x="1602" y="129"/>
    </contour>
  </outline>
</glyph>
<glyph name="tshe-cy.sc" format="1">
  <advance width="1798"/>
  <outline>
    <contour>
      <point x="716" y="-144" type="move" name="mark0"/>
    </contour>
    <contour>
      <point x="839" y="656" type="curve"/>
      <point x="839" y="1237" type="line"/>
      <point x="1304" y="1228" type="line"/>
      <point x="1341" y="892" type="line"/>
      <point x="1451" y="892" type="line"/>
      <point x="1454" y="1292" type="line"/>
      <point x="126" y="1292" type="line"/>
      <point x="100" y="892" type="line"/>
      <point x="211" y="892" type="line"/>
      <point x="269" y="1226" type="line"/>
      <point x="677" y="1236" type="line"/>
      <point x="677" y="69" type="line"/>
      <point x="395" y="53" type="line"/>
      <point x="395" y="0" type="line"/>
      <point x="1055" y="0" type="line"/>
      <point x="1055" y="53" type="line"/>
      <point x="839" y="69" type="line"/>
      <point x="839" y="600" type="line"/>
      <point x="902" y="636"/>
      <point x="1019" y="667"/>
      <point x="1184" y="667" type="curve" smooth="yes"/>
      <point x="1432" y="667"/>
      <point x="1467" y="488"/>
      <point x="1467" y="308" type="curve" smooth="yes"/>
      <point x="1467" y="67" type="line"/>
      <point x="1304" y="53" type="line"/>
      <point x="1304" y="0" type="line"/>
      <point x="1793" y="0" type="line"/>
      <point x="1793" y="53" type="line"/>
      <point x="1624" y="67" type="line"/>
      <point x="1624" y="354" type="line" smooth="yes"/>
      <point x="1624" y="604"/>
      <point x="1534" y="737"/>
      <point x="1209" y="737" type="curve" smooth="yes"/>
      <point x="1104" y="737"/>
      <point x="923" y="700"/>
    </contour>
  </outline>
</glyph>
<glyph name="u-cy.sc" format="1">
  <advance width="1407"/>
  <outline>
    <contour>
      <point x="702" y="1264" type="move" name="top"/>
    </contour>
    <contour>
      <point x="804" y="258" type="curve"/>
      <point x="1268" y="1228" type="line"/>
      <point x="1375" y="1241" type="line"/>
      <point x="1375" y="1292" type="line"/>
      <point x="938" y="1292" type="line"/>
      <point x="938" y="1241" type="line"/>
      <point x="1132" y="1226" type="line"/>
      <point x="840" y="536" type="line"/>
      <point x="766" y="354" type="line"/>
      <point x="697" y="534" type="line"/>
      <point x="321" y="1228" type="line"/>
      <point x="539" y="1241" type="line"/>
      <point x="539" y="1292" type="line"/>
      <point x="32" y="1292" type="line"/>
      <point x="32" y="1241" type="line"/>
      <point x="146" y="1226" type="line"/>
      <point x="695" y="288" type="line"/>
      <point x="641" y="147"/>
      <point x="587" y="91"/>
      <point x="462" y="91" type="curve" smooth="yes"/>
      <point x="445" y="91"/>
      <point x="319" y="94"/>
      <point x="316" y="97" type="curve"/>
      <point x="316" y="9" type="line"/>
      <point x="357" y="-7"/>
      <point x="412" y="-20"/>
      <point x="482" y="-20" type="curve" smooth="yes"/>
      <point x="693" y="-20"/>
      <point x="752" y="177"/>
    </contour>
  </outline>
</glyph>
<glyph name="ustraitstroke-cy.sc" format="1">
  <advance width="1441"/>
  <outline>
    <contour>
      <point x="91" y="1292" type="move" name="topleft"/>
    </contour>
    <contour>
      <point x="747" y="471" type="move" name="center"/>
    </contour>
    <contour>
      <point x="721" y="0" type="move" name="bottom"/>
    </contour>
    <contour>
      <point x="717" y="1292" type="move" name="top"/>
    </contour>
    <contour>
      <point x="747" y="471" type="move" name="_center"/>
    </contour>
    <contour>
      <point x="695" y="-144" type="move" name="mark0"/>
    </contour>
    <contour>
      <point x="652" y="69" type="line"/>
      <point x="418" y="53" type="line"/>
      <point x="418" y="0" type="line"/>
      <point x="1054" y="0" type="line"/>
      <point x="1054" y="53" type="line"/>
      <point x="814" y="69" type="line"/>
      <point x="814" y="483" type="line"/>
      <point x="1270" y="1224" type="line"/>
      <point x="1409" y="1241" type="line"/>
      <point x="1409" y="1292" type="line"/>
      <point x="959" y="1292" type="line"/>
      <point x="959" y="1241" type="line"/>
      <point x="1138" y="1228" type="line"/>
      <point x="826" y="683" type="line"/>
      <point x="744" y="532" type="line"/>
      <point x="667" y="683" type="line"/>
      <point x="343" y="1228" type="line"/>
      <point x="523" y="1241" type="line"/>
      <point x="523" y="1292" type="line"/>
      <point x="32" y="1292" type="line"/>
      <point x="32" y="1241" type="line"/>
      <point x="163" y="1223" type="line"/>
      <point x="652" y="481" type="line"/>
    </contour>
    <contour>
      <point x="1167" y="514" type="line"/>
      <point x="323" y="514" type="line"/>
      <point x="323" y="453" type="line"/>
      <point x="1167" y="453" type="line"/>
    </contour>
  </outline>
</glyph>
<glyph name="yat-cy.sc" format="1">
  <advance width="1550"/>
  <outline>
    <contour>
      <point x="672" y="675" type="curve"/>
      <point x="672" y="1066" type="line"/>
      <point x="1039" y="1047" type="line"/>
      <point x="1083" y="892" type="line"/>
      <point x="1197" y="892" type="line"/>
      <point x="1176" y="1114" type="line"/>
      <point x="672" y="1114" type="line"/>
      <point x="672" y="1292" type="line"/>
      <point x="866" y="1314" type="line"/>
      <point x="866" y="1357" type="line"/>
      <point x="325" y="1357" type="line"/>
      <point x="325" y="1314" type="line"/>
      <point x="515" y="1293" type="line"/>
      <point x="515" y="1114" type="line"/>
      <point x="28" y="1114" type="line"/>
      <point x="3" y="892" type="line"/>
      <point x="124" y="892" type="line"/>
      <point x="168" y="1047" type="line"/>
      <point x="515" y="1066" type="line"/>
      <point x="515" y="67" type="line"/>
      <point x="319" y="53" type="line"/>
      <point x="319" y="0" type="line"/>
      <point x="596" y="0" type="line" smooth="yes"/>
      <point x="684" y="0"/>
      <point x="851" y="-15"/>
      <point x="909" y="-15" type="curve" smooth="yes"/>
      <point x="1231" y="-15"/>
      <point x="1462" y="128"/>
      <point x="1462" y="352" type="curve" smooth="yes"/>
      <point x="1462" y="534"/>
      <point x="1312" y="694"/>
      <point x="934" y="694" type="curve" smooth="yes"/>
      <point x="842" y="694"/>
      <point x="724" y="682"/>
    </contour>
    <contour>
      <point x="672" y="70" type="curve"/>
      <point x="672" y="617" type="line"/>
      <point x="715" y="625"/>
      <point x="820" y="626"/>
      <point x="893" y="626" type="curve" smooth="yes"/>
      <point x="1131" y="626"/>
      <point x="1290" y="523"/>
      <point x="1290" y="343" type="curve" smooth="yes"/>
      <point x="1290" y="151"/>
      <point x="1135" y="50"/>
      <point x="896" y="50" type="curve" smooth="yes"/>
      <point x="788" y="50"/>
      <point x="728" y="60"/>
    </contour>
  </outline>
</glyph>
<glyph name="yeru-cy.sc" format="1">
  <advance width="2191"/>
  <outline>
    <contour>
      <point x="1096" y="1263" type="move" name="top"/>
    </contour>
    <contour>
      <point x="467" y="792" type="curve"/>
      <point x="467" y="1226" type="line"/>
      <point x="664" y="1245" type="line"/>
      <point x="664" y="1292" type="line"/>
      <point x="133" y="1292" type="line"/>
      <point x="133" y="1245" type="line"/>
      <point x="310" y="1225" type="line"/>
      <point x="310" y="67" type="line"/>
      <point x="126" y="53" type="line"/>
      <point x="126" y="0" type="line"/>
      <point x="399" y="0" type="line" smooth="yes"/>
      <point x="479" y="0"/>
      <point x="672" y="-14"/>
      <point x="717" y="-14" type="curve" smooth="yes"/>
      <point x="1045" y="-14"/>
      <point x="1272" y="122"/>
      <point x="1272" y="408" type="curve" smooth="yes"/>
      <point x="1272" y="651"/>
      <point x="1084" y="791"/>
      <point x="746" y="791" type="curve" smooth="yes"/>
      <point x="649" y="791"/>
      <point x="563" y="791"/>
    </contour>
    <contour>
      <point x="467" y="66" type="curve"/>
      <point x="467" y="718" type="line"/>
      <point x="547" y="717"/>
      <point x="623" y="715"/>
      <point x="702" y="715" type="curve" smooth="yes"/>
      <point x="950" y="715"/>
      <point x="1103" y="614"/>
      <point x="1103" y="402" type="curve" smooth="yes"/>
      <point x="1103" y="149"/>
      <point x="950" y="50"/>
      <point x="704" y="50" type="curve" smooth="yes"/>
      <point x="582" y="50"/>
      <point x="529" y="58"/>
    </contour>
    <contour>
      <point x="1474" y="1292" type="line"/>
      <point x="1474" y="1241" type="line"/>
      <point x="1679" y="1227" type="line"/>
      <point x="1679" y="69" type="line"/>
      <point x="1474" y="53" type="line"/>
      <point x="1474" y="0" type="line"/>
      <point x="2047" y="0" type="line"/>
      <point x="2047" y="54" type="line"/>
      <point x="1841" y="67" type="line"/>
      <point x="1841" y="1227" type="line"/>
      <point x="2047" y="1241" type="line"/>
      <point x="2047" y="1292" type="line"/>
    </contour>
  </outline>
</glyph>
<glyph name="yusbig-cy.sc" format="1">
  <advance width="2190"/>
  <outline>
    <contour>
      <point x="856" y="601" type="curve" smooth="yes"/>
      <point x="1019" y="601" type="line"/>
      <point x="1019" y="69" type="line"/>
      <point x="842" y="53" type="line"/>
      <point x="842" y="0" type="line"/>
      <point x="1354" y="0" type="line"/>
      <point x="1354" y="54" type="line"/>
      <point x="1171" y="69" type="line"/>
      <point x="1171" y="601" type="line"/>
      <point x="1332" y="601" type="line" smooth="yes"/>
      <point x="1498" y="601"/>
      <point x="1806" y="0"/>
      <point x="1948" y="0" type="curve" smooth="yes"/>
      <point x="2154" y="0" type="line"/>
      <point x="2154" y="53" type="line"/>
      <point x="2074" y="69" type="line" smooth="yes"/>
      <point x="1957" y="91"/>
      <point x="1638" y="664"/>
      <point x="1415" y="664" type="curve" smooth="yes"/>
      <point x="1222" y="664" type="line"/>
      <point x="1750" y="1234" type="line"/>
      <point x="1739" y="1292" type="line"/>
      <point x="451" y="1292" type="line"/>
      <point x="440" y="1234" type="line"/>
      <point x="966" y="664" type="line"/>
      <point x="773" y="664" type="line" smooth="yes"/>
      <point x="571" y="664"/>
      <point x="231" y="91"/>
      <point x="116" y="69" type="curve" smooth="yes"/>
      <point x="36" y="53" type="line"/>
      <point x="36" y="0" type="line"/>
      <point x="240" y="0" type="line" smooth="yes"/>
      <point x="384" y="0"/>
      <point x="692" y="601"/>
    </contour>
    <contour>
      <point x="615" y="1230" type="line"/>
      <point x="1575" y="1230" type="line"/>
      <point x="1096" y="662" type="line"/>
    </contour>
  </outline>
</glyph>
<glyph name="ze-cy.sc" format="1">
  <advance width="1283"/>
  <outline>
    <contour>
      <point x="643" y="1263" type="move" name="top"/>
    </contour>
    <contour>
      <point x="643" y="0" type="move" name="bottom"/>
    </contour>
    <contour>
      <point x="186" y="1246" type="curve"/>
      <point x="202" y="1008" type="line"/>
      <point x="305" y="1008" type="line"/>
      <point x="341" y="1154" type="line"/>
      <point x="376" y="1206"/>
      <point x="481" y="1236"/>
      <point x="608" y="1236" type="curve" smooth="yes"/>
      <point x="799" y="1236"/>
      <point x="929" y="1168"/>
      <point x="929" y="988" type="curve" smooth="yes"/>
      <point x="929" y="796"/>
      <point x="734" y="691"/>
      <point x="556" y="691" type="curve" smooth="yes"/>
      <point x="432" y="691" type="line"/>
      <point x="432" y="630" type="line"/>
      <point x="583" y="630" type="line" smooth="yes"/>
      <point x="890" y="630"/>
      <point x="964" y="488"/>
      <point x="964" y="356" type="curve" smooth="yes"/>
      <point x="964" y="148"/>
      <point x="850" y="69"/>
      <point x="651" y="69" type="curve" smooth="yes"/>
      <point x="505" y="69"/>
      <point x="400" y="86"/>
      <point x="339" y="112" type="curve"/>
      <point x="283" y="313" type="line"/>
      <point x="211" y="313" type="line"/>
      <point x="178" y="52" type="line"/>
      <point x="250" y="21"/>
      <point x="407" y="-10"/>
      <point x="603" y="-10" type="curve" smooth="yes"/>
      <point x="985" y="-10"/>
      <point x="1150" y="134"/>
      <point x="1150" y="369" type="curve" smooth="yes"/>
      <point x="1150" y="537"/>
      <point x="1015" y="678"/>
      <point x="746" y="682" type="curve"/>
      <point x="925" y="712"/>
      <point x="1101" y="822"/>
      <point x="1101" y="1016" type="curve" smooth="yes"/>
      <point x="1101" y="1216"/>
      <point x="909" y="1306"/>
      <point x="580" y="1306" type="curve" smooth="yes"/>
      <point x="423" y="1306"/>
      <point x="274" y="1254"/>
    </contour>
  </outline>
</glyph>
<glyph name="zhe-cy.sc" format="1">
  <advance width="2189"/>
  <outline>
    <contour>
      <point x="1094" y="1263" type="move" name="top"/>
    </contour>
    <contour>
      <point x="2133" y="0" type="move" name="bottomright"/>
    </contour>
    <contour>
      <point x="1483" y="646" type="curve"/>
      <point x="1967" y="1227" type="line"/>
      <point x="2127" y="1241" type="line"/>
      <point x="2127" y="1292" type="line"/>
      <point x="1648" y="1292" type="line"/>
      <point x="1648" y="1241" type="line"/>
      <point x="1822" y="1223" type="line"/>
      <point x="1372" y="662" type="line"/>
      <point x="1171" y="662" type="line"/>
      <point x="1171" y="1226" type="line"/>
      <point x="1354" y="1241" type="line"/>
      <point x="1354" y="1292" type="line"/>
      <point x="842" y="1292" type="line"/>
      <point x="842" y="1241" type="line"/>
      <point x="1020" y="1226" type="line"/>
      <point x="1020" y="662" type="line"/>
      <point x="819" y="662" type="line"/>
      <point x="365" y="1226" type="line"/>
      <point x="541" y="1241" type="line"/>
      <point x="541" y="1292" type="line"/>
      <point x="61" y="1292" type="line"/>
      <point x="61" y="1241" type="line"/>
      <point x="222" y="1227" type="line"/>
      <point x="704" y="652" type="line"/>
      <point x="516" y="576"/>
      <point x="240" y="89"/>
      <point x="123" y="69" type="curve" smooth="yes"/>
      <point x="36" y="53" type="line"/>
      <point x="36" y="0" type="line"/>
      <point x="232" y="0" type="line" smooth="yes"/>
      <point x="376" y="0"/>
      <point x="692" y="601"/>
      <point x="857" y="601" type="curve" smooth="yes"/>
      <point x="1020" y="601" type="line"/>
      <point x="1020" y="69" type="line"/>
      <point x="843" y="53" type="line"/>
      <point x="843" y="0" type="line"/>
      <point x="1355" y="0" type="line"/>
      <point x="1355" y="54" type="line"/>
      <point x="1171" y="69" type="line"/>
      <point x="1171" y="601" type="line"/>
      <point x="1332" y="601" type="line" smooth="yes"/>
      <point x="1499" y="601"/>
      <point x="1814" y="0"/>
      <point x="1958" y="0" type="curve"/>
      <point x="2155" y="0" type="line"/>
      <point x="2155" y="53" type="line"/>
      <point x="2066" y="69" type="line" smooth="yes"/>
      <point x="1949" y="89"/>
      <point x="1671" y="570"/>
    </contour>
  </outline>
</glyph>
<glyph name="zhedescender-cy.sc" format="1">
  <advance width="2187"/>
  <outline>
    <contour>
      <point x="1485" y="650" type="curve"/>
      <point x="1967" y="1227" type="line"/>
      <point x="2127" y="1241" type="line"/>
      <point x="2127" y="1292" type="line"/>
      <point x="1648" y="1292" type="line"/>
      <point x="1648" y="1241" type="line"/>
      <point x="1822" y="1223" type="line"/>
      <point x="1372" y="662" type="line"/>
      <point x="1171" y="662" type="line"/>
      <point x="1171" y="1226" type="line"/>
      <point x="1354" y="1241" type="line"/>
      <point x="1354" y="1292" type="line"/>
      <point x="842" y="1292" type="line"/>
      <point x="842" y="1241" type="line"/>
      <point x="1020" y="1226" type="line"/>
      <point x="1020" y="662" type="line"/>
      <point x="819" y="662" type="line"/>
      <point x="365" y="1226" type="line"/>
      <point x="541" y="1241" type="line"/>
      <point x="541" y="1292" type="line"/>
      <point x="61" y="1292" type="line"/>
      <point x="61" y="1241" type="line"/>
      <point x="222" y="1227" type="line"/>
      <point x="704" y="652" type="line"/>
      <point x="516" y="576"/>
      <point x="232" y="91"/>
      <point x="117" y="69" type="curve" smooth="yes"/>
      <point x="36" y="53" type="line"/>
      <point x="36" y="0" type="line"/>
      <point x="241" y="0" type="line" smooth="yes"/>
      <point x="384" y="0"/>
      <point x="692" y="601"/>
      <point x="857" y="601" type="curve" smooth="yes"/>
      <point x="1020" y="601" type="line"/>
      <point x="1020" y="69" type="line"/>
      <point x="843" y="53" type="line"/>
      <point x="843" y="0" type="line"/>
      <point x="1355" y="0" type="line"/>
      <point x="1355" y="54" type="line"/>
      <point x="1171" y="69" type="line"/>
      <point x="1171" y="601" type="line"/>
      <point x="1332" y="601" type="line" smooth="yes"/>
      <point x="1499" y="601"/>
      <point x="1807" y="0"/>
      <point x="1948" y="0" type="curve" smooth="yes"/>
      <point x="2019" y="0" type="line"/>
      <point x="2026" y="-7"/>
      <point x="2034" y="-273"/>
      <point x="2034" y="-293" type="curve"/>
      <point x="2143" y="-293" type="line"/>
      <point x="2147" y="-294"/>
      <point x="2198" y="122"/>
      <point x="2198" y="69" type="curve"/>
      <point x="2070" y="69" type="line"/>
      <point x="1953" y="104"/>
      <point x="1673" y="574"/>
    </contour>
  </outline>
</glyph>
